<?xml version="1.0" standalone="no"?>
<!DOCTYPE svg PUBLIC "-//W3C//DTD SVG 20010904//EN"
 "http://www.w3.org/TR/2001/REC-SVG-20010904/DTD/svg10.dtd">
<svg version="1.0" xmlns="http://www.w3.org/2000/svg"
 width="1120.000000pt" height="1120.000000pt" viewBox="0 0 1120.000000 1120.000000"
 preserveAspectRatio="xMidYMid meet">

<g transform="translate(0.000000,1120.000000) scale(0.100000,-0.100000)"
fill="#000000" stroke="none">
<path d="M8495 11084 c-119 -21 -252 -62 -320 -97 -79 -41 -211 -173 -253
-253 -42 -80 -62 -162 -62 -250 0 -80 11 -117 42 -151 27 -29 48 -29 152 1
210 61 526 78 689 38 112 -28 178 -59 275 -131 196 -145 328 -356 417 -663 43
-148 44 -152 51 -145 7 7 -30 162 -62 262 -35 106 -121 287 -173 364 -195 287
-448 399 -840 370 -75 -5 -173 -16 -218 -24 -87 -16 -229 -60 -249 -76 -9 -7
-15 4 -23 41 -36 169 18 345 148 483 76 81 161 125 341 173 126 35 359 44 463
20 428 -100 653 -433 792 -1171 76 -405 114 -490 251 -555 72 -34 139 -39 139
-10 0 8 10 23 22 33 23 19 38 23 28 7 -3 -5 -1 -10 4 -10 6 0 10 8 9 18 -1 9
8 37 20 62 11 25 29 77 40 115 11 41 23 69 30 67 7 -1 12 3 12 8 0 18 55 -17
96 -62 126 -137 214 -340 267 -623 l23 -120 -27 -23 c-27 -22 -55 -21 -71 2
-4 6 -10 7 -14 3 -4 -4 5 -18 19 -31 34 -31 35 -42 2 -20 -28 18 -31 14 -13
-16 11 -18 6 -27 -57 -90 -39 -38 -75 -68 -82 -66 -6 3 -13 -4 -16 -15 -3 -11
-28 -30 -59 -45 -29 -14 -66 -32 -81 -41 -35 -18 -180 -45 -213 -38 -13 3 -36
7 -51 10 l-28 5 25 -15 c32 -18 99 -19 175 0 64 15 81 18 74 10 -15 -14 -137
-35 -212 -36 -66 0 -94 3 -113 16 -14 9 -28 14 -31 11 -3 -3 10 -14 28 -25 46
-28 167 -28 275 -1 132 33 232 89 328 183 46 45 97 102 115 126 17 24 31 40
31 35 0 -24 -50 -87 -134 -169 -68 -67 -113 -101 -172 -132 -151 -79 -343
-118 -541 -112 -84 3 -109 1 -106 -8 17 -45 285 -53 438 -14 214 55 415 191
502 338 l28 47 6 -39 c13 -79 29 -310 29 -426 0 -119 12 -161 27 -92 15 69 8
410 -11 533 -60 402 -126 629 -229 788 -83 128 -252 274 -391 338 -51 23 -58
24 -121 13 -45 -8 -65 -15 -62 -23 4 -9 -5 -12 -25 -11 -29 2 -30 1 -12 -13
18 -13 17 -14 -9 -10 -22 4 -25 3 -16 -8 6 -8 17 -14 23 -14 7 0 21 -6 32 -14
15 -12 9 -12 -30 1 -47 16 -50 15 -63 -3 -9 -12 -12 -32 -9 -51 2 -18 1 -33
-4 -33 -4 0 -11 19 -15 43 -4 23 -25 134 -47 247 l-40 205 30 26 c35 32 130
69 174 69 17 0 28 3 25 7 -23 23 -138 -11 -199 -60 -60 -46 -44 -15 25 49 64
60 156 114 193 114 11 0 52 11 90 25 50 19 59 24 31 20 -21 -3 -46 -8 -55 -11
-14 -5 -15 -4 -2 4 41 27 186 44 315 39 212 -9 363 -61 530 -184 150 -111 241
-220 328 -393 l58 -115 -3 71 c-3 64 -8 79 -53 155 -74 123 -241 289 -365 362
-194 114 -353 160 -560 161 -116 1 -145 -2 -204 -22 -142 -48 -294 -141 -346
-213 l-28 -39 -48 142 c-77 231 -194 441 -305 545 -100 93 -255 173 -401 208
-80 19 -285 18 -393 -1z m1375 -1405 c52 -27 23 -22 -35 7 -27 13 -39 21 -25
18 14 -4 41 -15 60 -25z m-4 -34 c110 -46 136 -46 97 -2 -20 23 -2 16 29 -11
10 -8 29 -14 43 -14 32 0 31 -6 -5 -54 -16 -21 -30 -45 -30 -52 0 -9 -7 -8
-25 4 -31 20 -32 8 -3 -23 30 -32 43 -29 73 14 28 42 29 39 14 -27 -6 -25 -12
-52 -13 -60 -6 -37 -102 -53 -154 -26 -31 16 -74 61 -91 94 -15 28 -14 27 47
-3 54 -27 62 -29 62 -17 0 5 -18 17 -40 27 -50 23 -46 32 5 11 73 -31 81 -15
10 19 -38 19 -67 34 -63 34 3 1 15 4 25 7 15 5 15 4 3 -5 -12 -8 -8 -11 18
-11 17 0 32 -4 32 -9 0 -4 11 -6 25 -3 l26 5 -35 23 c-19 13 -41 24 -48 24 -7
1 -29 10 -48 21 -43 24 -9 17 59 -12 47 -20 71 -24 71 -11 0 10 -31 25 -110
54 -51 19 -84 38 -66 38 4 0 45 -16 92 -35z m228 -5 c5 0 6 7 3 14 -4 11 -1
13 10 9 14 -5 13 -9 -7 -25 -25 -20 -35 -17 -43 13 -5 19 -4 20 12 5 10 -9 21
-16 25 -16z m-54 -10 c0 -5 -2 -10 -4 -10 -3 0 -8 5 -11 10 -3 6 -1 10 4 10 6
0 11 -4 11 -10z m-244 -40 c8 0 12 -5 9 -10 -9 -15 -45 7 -45 28 1 16 1 16 11
0 5 -10 17 -18 25 -18z m14 -60 c8 -5 11 -10 5 -10 -5 0 -17 5 -25 10 -8 5
-10 10 -5 10 6 0 17 -5 25 -10z m774 -785 c-9 -14 -19 -24 -21 -21 -7 7 16 46
28 46 5 0 2 -11 -7 -25z m-84 -105 c-29 -34 -80 -80 -114 -104 -64 -45 -125
-80 -131 -74 -2 2 22 17 53 33 36 18 91 63 147 120 50 50 92 90 94 88 2 -1
-20 -30 -49 -63z m-270 -190 c-8 -5 -19 -10 -25 -10 -5 0 -3 5 5 10 8 5 20 10
25 10 6 0 3 -5 -5 -10z"/>
<path d="M3235 11043 c-16 -2 -100 -17 -185 -33 -156 -30 -249 -59 -340 -105
l-49 -25 -78 25 c-238 75 -393 100 -561 92 -275 -14 -571 -113 -752 -252 -112
-86 -245 -248 -330 -402 -102 -183 -167 -372 -196 -566 -19 -132 -14 -384 11
-507 52 -257 205 -556 403 -787 114 -133 341 -290 526 -363 83 -33 127 -41
132 -25 2 6 -70 47 -160 93 -90 46 -206 110 -257 144 -175 116 -327 295 -440
521 -60 118 -72 152 -26 74 14 -23 35 -51 48 -62 l23 -20 -15 25 c-62 99 -79
129 -79 145 0 11 -5 15 -14 12 -17 -7 -37 38 -65 150 -61 239 -68 449 -20 678
17 82 37 162 45 179 12 25 13 27 9 6 -3 -14 -8 -41 -11 -60 -3 -19 -9 -44 -14
-55 -36 -86 -51 -405 -26 -540 14 -77 76 -235 91 -235 3 0 5 15 5 33 0 17 1
61 3 97 2 38 1 57 -4 45 -4 -11 -8 -15 -8 -8 -2 21 11 43 21 36 10 -6 10 0 -8
102 -4 20 -2 26 4 16 18 -26 23 8 15 102 -10 114 -10 370 -1 417 4 19 12 60
18 90 21 109 52 206 86 269 42 75 39 92 -3 24 -36 -57 -66 -138 -97 -258 -13
-48 -25 -81 -28 -74 -3 8 3 46 14 84 11 39 21 84 22 102 4 47 114 224 204 326
196 223 359 319 642 377 92 19 127 21 290 17 171 -5 196 -8 327 -41 437 -112
859 -335 1313 -695 91 -72 188 -149 217 -172 50 -39 73 -44 73 -14 0 25 -315
281 -528 429 -62 42 -112 80 -112 82 0 3 44 -25 98 -62 143 -99 155 -108 171
-122 7 -7 20 -11 29 -7 8 3 21 0 28 -6 10 -8 14 -8 14 -1 0 6 -8 16 -17 21
-16 9 -16 10 4 11 12 0 24 6 26 13 3 6 6 0 6 -15 1 -44 21 -32 21 12 0 29 -4
40 -15 40 -17 0 -20 17 -4 22 5 2 14 20 19 41 6 30 5 40 -9 50 -28 19 -44 54
-28 61 6 3 1 3 -12 0 -19 -5 -23 -3 -18 9 7 20 -14 67 -30 67 -7 0 -13 5 -13
11 0 6 7 8 16 5 13 -5 14 -4 6 7 -7 8 -10 17 -7 20 3 4 2 5 -2 2 -9 -7 -63 46
-63 62 0 7 -3 13 -8 13 -4 0 -13 14 -20 30 -8 17 -21 30 -31 30 -12 0 -17 7
-17 22 1 13 -5 23 -11 24 -7 1 -17 2 -23 3 -5 0 -9 6 -7 13 1 7 -4 12 -10 13
-7 0 -13 4 -12 9 1 15 -22 24 -61 22 -21 0 -37 1 -35 4 2 4 -5 11 -16 18 -16
10 -19 9 -19 -3 0 -13 -4 -14 -22 -4 -13 7 -24 12 -25 11 -2 -1 -22 -1 -45 -1
l-43 1 55 10 c76 13 423 3 550 -17 474 -74 838 -261 1145 -589 61 -64 120
-124 133 -132 l23 -15 -20 38 c-56 111 -227 288 -392 406 -123 88 -374 214
-519 260 -141 45 -328 83 -475 97 -104 9 -385 12 -450 3z m-62 -70 c-7 -2 -21
-2 -30 0 -10 3 -4 5 12 5 17 0 24 -2 18 -5z m-120 -50 c-7 -2 -19 -2 -25 0 -7
3 -2 5 12 5 14 0 19 -2 13 -5z m-170 -20 c-7 -2 -21 -2 -30 0 -10 3 -4 5 12 5
17 0 24 -2 18 -5z m-59 -26 c-16 -6 -33 -16 -39 -23 -8 -10 -18 -11 -47 -1
-43 14 -48 22 -15 31 32 8 39 7 31 -5 -7 -11 26 -5 55 11 8 4 22 5 30 2 11 -4
6 -9 -15 -15z m26 -22 c0 -2 -9 -9 -20 -15 -12 -6 -20 -7 -20 -1 0 5 8 12 18
14 9 3 18 5 20 6 1 0 2 -1 2 -4z m197 -31 c-3 -3 -12 -4 -19 -1 -8 3 -5 6 6 6
11 1 17 -2 13 -5z m-40 -10 c-3 -3 -12 -4 -19 -1 -8 3 -5 6 6 6 11 1 17 -2 13
-5z m63 -95 c41 -22 80 -45 85 -51 6 -5 -30 11 -80 38 -100 53 -102 54 -89 54
5 0 43 -19 84 -41z m160 -95 c0 -2 -13 2 -30 11 -16 9 -30 18 -30 21 0 2 14
-2 30 -11 17 -9 30 -18 30 -21z m56 -35 c3 -6 -5 -3 -20 6 -14 10 -26 19 -26
22 0 7 39 -17 46 -28z m74 -45 c0 -2 -9 0 -20 6 -11 6 -20 13 -20 16 0 2 9 0
20 -6 11 -6 20 -13 20 -16z m-2453 -566 c-3 -8 -6 -5 -6 6 -1 11 2 17 5 13 3
-3 4 -12 1 -19z m-10 -55 c-3 -10 -5 -4 -5 12 0 17 2 24 5 18 2 -7 2 -21 0
-30z m-30 -295 c-2 -13 -4 -3 -4 22 0 25 2 35 4 23 2 -13 2 -33 0 -45z m10
-70 c-3 -8 -6 -5 -6 6 -1 11 2 17 5 13 3 -3 4 -12 1 -19z m-10 -190 c-3 -8 -6
-5 -6 6 -1 11 2 17 5 13 3 -3 4 -12 1 -19z m34 -148 c-3 -9 -8 -1 -12 20 -19
97 -19 102 -1 50 10 -30 16 -62 13 -70z m-44 88 c-3 -8 -6 -5 -6 6 -1 11 2 17
5 13 3 -3 4 -12 1 -19z"/>
<path d="M8390 10970 c-19 -11 -46 -28 -60 -39 l-25 -21 23 0 c13 0 22 6 22
15 0 8 21 26 48 39 26 14 43 25 37 25 -5 0 -26 -9 -45 -19z"/>
<path d="M8274 10935 c-10 -8 -14 -15 -8 -15 6 0 17 7 24 15 16 19 9 19 -16 0z"/>
<path d="M8205 10911 c-37 -22 -114 -104 -140 -148 -11 -18 -23 -33 -28 -33
-13 0 -57 -102 -56 -130 1 -16 7 -6 18 30 10 31 23 65 30 75 12 20 12 20 6 0
-30 -92 -30 -173 1 -211 15 -19 16 -19 9 1 -48 134 38 333 181 422 10 6 17 12
14 12 -3 1 -18 -7 -35 -18z"/>
<path d="M8176 10840 c-61 -67 -97 -123 -120 -188 -20 -55 -12 -54 13 3 26 60
75 129 134 193 28 28 45 52 40 52 -6 0 -36 -27 -67 -60z"/>
<path d="M1444 10771 c-97 -77 -273 -305 -303 -391 -18 -54 3 -31 48 50 54 96
151 221 245 313 38 37 67 67 64 67 -3 0 -27 -18 -54 -39z"/>
<path d="M8180 10790 c-8 -5 -12 -12 -9 -15 4 -3 12 1 19 10 14 17 11 19 -10
5z"/>
<path d="M1393 10660 c-110 -116 -144 -160 -124 -160 6 0 16 10 22 23 7 12 53
65 103 117 108 112 132 140 120 139 -5 0 -59 -54 -121 -119z"/>
<path d="M1311 10692 c-26 -26 -56 -61 -67 -77 -10 -17 -33 -48 -50 -70 -51
-63 -153 -254 -174 -325 -29 -93 -49 -206 -39 -221 5 -8 10 2 14 27 20 111 70
272 103 330 16 27 15 15 -4 -40 -9 -26 -14 -49 -11 -52 7 -8 39 94 33 104 -15
25 118 225 206 311 34 33 57 61 50 61 -7 0 -35 -22 -61 -48z"/>
<path d="M7945 10423 c7 -31 35 -66 35 -45 0 16 -28 72 -36 72 -4 0 -3 -12 1
-27z"/>
<path d="M8434 10361 c3 -4 41 -11 83 -13 374 -26 635 -307 742 -799 33 -153
50 -316 61 -589 6 -140 14 -280 18 -310 11 -99 24 164 18 375 -15 527 -141
922 -365 1145 -106 105 -227 164 -391 190 -79 12 -173 13 -166 1z"/>
<path d="M3675 10330 c3 -5 8 -10 11 -10 2 0 4 5 4 10 0 6 -5 10 -11 10 -5 0
-7 -4 -4 -10z"/>
<path d="M9915 10317 c-48 -11 -114 -38 -120 -48 -3 -4 25 4 63 17 43 15 90
24 131 24 35 0 62 2 60 4 -11 9 -99 12 -134 3z"/>
<path d="M7350 10282 c-33 -34 -31 -68 6 -95 27 -20 32 -11 9 19 -21 27 -18
61 6 77 28 20 57 10 81 -27 17 -27 19 -28 13 -6 -18 64 -69 78 -115 32z"/>
<path d="M9825 10263 c-38 -13 -77 -31 -85 -39 -10 -10 1 -9 43 6 31 11 76 20
99 21 36 1 39 2 18 9 -25 8 -24 8 5 9 17 1 37 6 45 11 30 19 -54 8 -125 -17z"/>
<path d="M7388 10254 c-9 -19 -9 -30 -1 -44 7 -10 9 -28 6 -41 -4 -14 -2 -21
3 -16 8 8 14 127 6 127 -1 0 -8 -12 -14 -26z"/>
<path d="M7290 10210 c0 -27 32 -70 51 -70 20 0 20 1 -5 31 -14 17 -26 35 -26
40 0 5 -4 9 -10 9 -5 0 -10 -5 -10 -10z"/>
<path d="M9787 10187 c-41 -14 -66 -30 -84 -54 -14 -18 -22 -37 -18 -41 4 -4
10 -1 12 6 9 26 62 72 82 72 25 0 71 20 71 32 0 4 -1 7 -2 7 -2 -1 -29 -11
-61 -22z"/>
<path d="M9088 10165 c5 -11 27 -36 48 -55 l38 -35 -32 41 c-17 22 -39 47 -48
55 -16 13 -16 12 -6 -6z"/>
<path d="M9782 10153 c-12 -2 -20 -8 -17 -13 6 -10 45 -1 45 11 0 5 -1 8 -2 8
-2 -1 -13 -4 -26 -6z"/>
<path d="M7686 10081 c-22 -25 -18 -90 7 -105 15 -9 21 -6 37 14 22 28 25 40
11 40 -5 0 -13 -9 -16 -20 -9 -29 -33 -25 -41 7 -9 36 36 79 67 63 19 -10 23
-26 19 -64 -1 -11 3 -15 9 -12 14 9 14 51 1 77 -14 26 -71 26 -94 0z"/>
<path d="M5280 10078 c-706 -30 -1380 -258 -1971 -664 -350 -241 -696 -563
-937 -872 -418 -536 -706 -1174 -827 -1826 -21 -117 -23 -121 -46 -118 -129
17 -182 14 -266 -13 -257 -84 -405 -298 -390 -565 12 -207 123 -393 280 -465
28 -14 46 -25 39 -25 -26 0 -218 -98 -241 -123 -26 -28 -26 -63 0 -125 12 -30
12 -36 -5 -65 -51 -86 -86 -157 -101 -211 -24 -83 -22 -213 4 -296 73 -231
259 -370 498 -370 74 0 84 -2 114 -27 34 -29 108 -175 188 -372 210 -515 475
-971 794 -1366 36 -44 64 -82 62 -83 -2 -2 -39 -8 -82 -13 -43 -5 -138 -16
-211 -25 -118 -14 -135 -15 -150 -1 -9 8 -37 25 -62 37 -218 109 -515 460
-853 1010 -313 510 -594 855 -812 999 -94 61 -220 124 -238 118 -6 -2 13 -16
43 -32 97 -49 215 -131 290 -201 189 -178 459 -546 748 -1015 167 -271 366
-539 525 -705 90 -95 214 -186 292 -216 l39 -16 -54 -6 c-135 -18 -341 -49
-405 -61 -38 -8 -137 -26 -219 -40 l-148 -27 -27 27 -26 28 34 -23 34 -24 -7
30 -8 29 26 -24 c15 -14 26 -19 26 -12 0 7 -45 60 -100 118 -55 58 -100 110
-100 116 0 7 7 4 14 -6 45 -59 147 -163 180 -184 30 -19 41 -22 50 -12 7 8 7
10 0 6 -6 -3 -21 7 -33 24 l-22 30 40 -25 c44 -28 61 -32 61 -15 0 5 -4 8 -9
5 -9 -6 -21 14 -27 42 -1 8 -11 20 -21 29 -10 8 -11 11 -3 7 8 -4 5 4 -8 18
-18 19 -20 27 -10 31 7 3 -2 4 -21 1 l-34 -5 23 19 c18 14 20 21 10 27 -8 5
-11 4 -6 -3 12 -20 -11 -22 -29 -2 -11 13 -27 18 -46 16 -25 -3 -39 8 -100 73
-40 42 -114 131 -167 198 -52 68 -98 120 -104 117 -9 -6 22 -64 54 -100 10
-11 15 -24 11 -28 -5 -4 -1 -6 7 -4 9 2 14 -3 12 -14 -1 -9 3 -20 9 -24 8 -4
9 -3 5 4 -16 27 4 9 30 -25 l27 -38 -26 24 c-15 14 -27 19 -27 13 0 -6 5 -14
10 -17 6 -3 10 -11 10 -17 0 -5 -16 10 -35 34 -19 23 -40 48 -45 55 -6 7 -10
17 -10 23 0 5 -3 9 -7 8 -5 -2 -10 2 -12 7 -2 6 -12 16 -21 22 -10 7 -35 36
-56 64 -49 67 -57 45 -9 -24 l37 -52 -36 39 c-20 22 -39 36 -43 32 -4 -4 -3
-10 2 -14 6 -4 22 -23 36 -42 15 -19 41 -50 58 -69 28 -30 112 -137 197 -251
14 -19 3 -10 -25 20 -28 30 -68 79 -88 109 -33 47 -97 122 -157 185 -86 89
-143 160 -187 232 -28 47 -53 83 -55 81 -10 -9 77 -147 166 -263 113 -149 137
-184 86 -127 -21 24 -42 43 -47 43 -12 0 22 -52 66 -100 18 -19 39 -47 46 -61
8 -15 24 -46 37 -70 21 -40 21 -42 2 -19 -11 14 -60 84 -109 155 -262 386
-450 782 -555 1168 -56 206 -93 482 -83 628 5 69 3 78 -9 68 -19 -16 -19 -267
1 -404 29 -206 88 -435 167 -645 159 -422 492 -965 753 -1226 l70 -70 -255
-57 c-140 -31 -313 -72 -385 -92 -175 -48 -388 -115 -382 -121 2 -2 128 27
279 65 461 116 1212 265 1671 331 73 10 226 33 341 50 l209 31 50 -58 c207
-236 634 -627 835 -763 58 -40 73 -77 25 -65 -62 15 -218 35 -324 40 -63 3
-157 10 -209 15 -127 14 -250 17 -250 8 0 -4 -18 -8 -40 -8 -22 0 -40 5 -40
10 0 7 -6 7 -19 0 -14 -7 -22 -7 -26 0 -5 8 -12 7 -22 -1 -9 -8 -17 -9 -21 -3
-4 5 -29 9 -57 9 -27 -1 -142 5 -255 11 -113 7 -254 14 -315 17 -104 6 -105 5
-30 -3 44 -5 141 -16 215 -23 186 -20 88 -20 -206 -1 -135 8 -253 13 -262 11
-9 -3 1 -5 23 -6 60 -3 354 -39 326 -40 -22 -1 -168 8 -368 24 -35 2 -63 1
-63 -3 0 -5 60 -14 133 -20 72 -7 164 -16 202 -19 121 -11 25 -20 -130 -11
-185 10 -437 16 -432 11 8 -7 248 -32 261 -27 8 3 17 1 21 -5 3 -6 23 -11 43
-12 20 0 31 -3 25 -6 -7 -2 -90 2 -185 11 -203 18 -607 40 -614 34 -2 -3 69
-10 158 -17 317 -24 533 -43 538 -48 5 -6 -202 3 -280 12 -78 8 -280 14 -295
8 -8 -3 -15 -11 -15 -19 0 -7 -8 -17 -17 -23 -33 -18 -1 -28 105 -30 31 -1 51
-5 47 -11 -3 -5 -11 -7 -18 -5 -7 2 -82 6 -167 8 l-155 5 80 -13 c44 -7 98
-15 120 -16 l40 -2 -50 -7 c-43 -6 -38 -7 45 -10 52 -1 122 -6 155 -10 38 -5
9 -6 -75 -2 -74 2 -133 2 -130 -1 3 -3 86 -13 185 -22 99 -10 181 -19 183 -20
2 -2 -70 -2 -160 0 l-163 4 210 -18 c241 -22 305 -30 305 -41 0 -5 -17 -6 -37
-4 -67 8 -667 43 -671 39 -9 -9 25 -12 733 -65 267 -21 479 -50 500 -71 5 -5
17 -9 27 -9 10 0 18 -4 18 -10 0 -5 14 -10 31 -10 16 0 28 -4 25 -9 -4 -5 8
-12 25 -16 23 -5 28 -9 18 -16 -11 -7 -9 -12 11 -26 42 -30 183 -64 405 -98
210 -32 345 -54 353 -58 4 -3 30 -8 57 -11 28 -4 68 -11 90 -16 22 -4 63 -11
90 -14 68 -9 156 -24 240 -41 39 -8 115 -22 170 -31 55 -9 107 -19 115 -22 8
-3 23 -4 33 -3 9 1 17 -3 17 -10 0 -7 10 -9 25 -7 15 3 22 1 18 -5 -4 -6 0 -8
11 -4 10 4 23 4 29 0 6 -4 24 -8 41 -10 16 -2 34 -7 41 -13 6 -5 30 -11 52
-12 23 -2 39 -7 36 -12 -3 -4 4 -5 16 -1 13 4 36 1 52 -5 22 -9 32 -10 43 -1
10 9 16 8 26 -4 8 -9 21 -13 36 -9 15 4 24 2 24 -6 0 -6 4 -9 9 -6 5 3 28 0
53 -7 24 -8 57 -13 73 -12 17 1 37 -2 46 -6 9 -5 32 -10 50 -13 91 -11 136
-19 153 -28 12 -7 22 -6 28 0 7 7 15 6 25 -4 13 -12 42 -19 66 -15 4 1 33 -5
64 -13 31 -8 60 -13 64 -10 4 2 10 0 14 -6 4 -6 10 -8 15 -5 4 3 41 -2 82 -10
40 -9 105 -20 143 -25 39 -5 81 -12 95 -14 14 -3 93 -12 175 -21 83 -9 156
-18 163 -20 7 -3 45 -7 85 -10 40 -3 86 -8 102 -10 17 -2 59 -7 95 -10 36 -4
126 -15 200 -25 131 -18 300 -35 445 -45 39 -2 198 -7 355 -11 157 -3 286 -8
288 -9 2 -2 17 1 33 5 20 6 29 5 29 -3 0 -8 3 -7 9 2 7 11 41 13 162 11 351
-6 399 -5 399 8 0 6 5 12 11 12 5 0 7 -5 4 -10 -4 -6 6 -10 24 -10 16 0 32 4
36 9 3 5 18 12 34 16 40 9 58 30 41 50 -10 12 -10 15 1 15 37 1 -16 17 -59 19
-63 2 -82 9 -75 27 3 9 19 14 44 14 21 0 39 5 39 10 0 6 -5 10 -12 10 -7 0 -8
3 -3 9 6 5 125 11 265 14 339 7 539 15 548 21 5 3 42 8 82 11 41 3 78 11 82
18 6 9 8 8 8 -3 0 -9 3 -11 8 -5 4 6 21 11 37 12 483 18 542 28 565 98 7 20
23 43 36 52 17 11 21 18 13 23 -6 5 -8 13 -4 20 5 8 4 11 -3 6 -6 -3 -13 3
-17 14 -7 22 -41 39 -158 77 -47 15 -84 34 -95 48 -22 27 -92 60 -147 69 -53
8 -115 17 -140 20 -27 2 -78 28 -88 43 -4 7 -24 15 -45 18 -59 10 -73 16 -66
26 3 6 12 8 20 5 7 -3 16 -1 19 4 4 6 -23 10 -67 10 -64 1 -70 2 -50 13 31 18
18 27 -37 27 -33 0 -42 3 -31 10 11 7 5 10 -23 10 -36 0 -87 24 -87 40 0 5 21
16 48 24 57 19 145 89 183 146 15 22 33 63 40 91 7 28 19 53 25 56 6 2 94 -17
195 -43 638 -162 1061 -377 1166 -592 37 -76 43 -171 15 -233 -51 -113 -166
-207 -387 -314 -316 -154 -609 -245 -1200 -370 l-250 -53 106 -1 c125 -1 218
14 469 75 395 96 658 184 895 298 227 110 357 215 412 335 22 46 25 63 21 135
-5 92 -32 157 -99 237 -154 185 -571 374 -1130 510 l-219 54 0 60 c-1 146 -70
282 -184 359 -28 19 -63 38 -79 42 -15 3 -29 10 -32 14 -3 5 36 29 87 54 125
61 277 161 428 283 683 547 1117 1263 1320 2176 68 306 100 604 100 937 0 593
-99 1130 -305 1666 -42 108 -180 419 -195 439 -5 6 -38 66 -75 134 -89 166
-281 452 -443 659 -137 177 -432 461 -649 624 -294 223 -644 426 -926 539
-290 117 -601 207 -792 230 -49 6 -178 33 -285 60 -421 104 -672 145 -973 158
-106 5 -199 8 -207 7 -8 0 -85 -4 -170 -8z m487 -19 c380 -31 674 -98 1091
-250 374 -136 718 -324 1067 -582 66 -48 72 -51 35 -17 l-45 42 40 -23 c271
-156 648 -520 931 -899 444 -595 739 -1315 863 -2105 75 -483 63 -1159 -30
-1624 -68 -338 -230 -813 -396 -1162 -162 -338 -330 -590 -580 -869 -151 -168
-192 -209 -261 -259 -28 -20 -101 -79 -164 -132 -234 -199 -481 -358 -738
-475 -170 -78 -432 -168 -460 -159 -40 13 -19 28 85 65 78 27 405 169 460 199
137 76 308 179 379 230 43 31 98 70 121 86 130 92 441 395 573 560 117 145
165 212 267 375 43 69 88 141 101 160 26 40 155 308 219 455 59 135 177 492
214 645 64 267 107 550 132 862 20 252 -1 700 -47 1008 -49 325 -166 769 -264
1005 -23 55 -58 138 -77 185 -50 122 -194 404 -281 550 -103 172 -225 343
-382 535 -247 300 -681 702 -897 829 -32 19 -69 44 -82 57 -25 23 -127 85
-302 181 -172 94 -409 195 -644 273 -329 110 -576 165 -870 196 -143 14 -522
14 -650 0 -55 -7 -138 -16 -185 -22 -214 -25 -537 -103 -765 -185 -166 -59
-228 -85 -379 -161 -541 -270 -1036 -672 -1403 -1138 -204 -260 -334 -466
-483 -770 -111 -226 -131 -276 -207 -500 -113 -335 -168 -584 -218 -1000 -14
-115 -28 -216 -31 -224 -2 -8 -5 -144 -4 -303 0 -158 -4 -288 -9 -288 -33 0
-27 507 10 805 50 406 90 622 164 878 87 304 193 560 351 849 43 78 90 167
105 197 15 29 31 56 36 60 5 3 31 38 58 76 163 233 298 397 465 569 468 480
1041 846 1613 1031 305 99 622 161 962 188 99 8 396 6 512 -4z m1291 -240
c394 -84 823 -260 1176 -481 298 -187 454 -304 669 -503 252 -233 426 -439
633 -750 215 -322 382 -667 515 -1065 106 -317 165 -592 205 -950 22 -195 25
-736 6 -910 -21 -188 -79 -526 -112 -655 -141 -549 -384 -1045 -720 -1470
-249 -315 -670 -679 -945 -817 -33 -17 -73 -39 -88 -50 -16 -11 -30 -18 -33
-15 -2 2 26 24 63 47 37 24 93 59 123 78 217 137 437 318 635 523 430 443 770
1070 925 1702 81 331 128 856 109 1237 -34 712 -266 1499 -610 2072 -210 350
-387 579 -648 838 -222 220 -429 389 -679 554 -44 29 -69 52 -63 56 17 10 -82
76 -236 158 -242 129 -488 230 -713 293 -149 41 -343 104 -370 120 -28 16 57
10 158 -12z m-1143 -333 c314 -49 543 -111 823 -222 478 -190 895 -465 1257
-828 145 -146 255 -262 255 -271 0 -2 37 -52 82 -112 431 -571 704 -1236 808
-1968 71 -503 40 -1088 -85 -1585 -48 -191 -157 -524 -205 -625 -5 -11 -33
-72 -62 -135 -90 -196 -258 -477 -372 -622 -12 -15 -32 -43 -46 -63 -54 -78
-123 -157 -286 -321 -123 -124 -203 -195 -294 -260 -181 -131 -293 -204 -395
-258 -49 -27 -115 -63 -145 -82 -30 -18 -77 -41 -105 -50 -27 -9 -97 -37 -155
-62 -130 -56 -426 -131 -670 -169 -161 -25 -199 -27 -475 -28 -330 0 -394 6
-660 61 -161 33 -214 47 -465 124 -130 40 -453 197 -650 316 -320 194 -671
487 -928 775 -357 399 -484 575 -690 959 -177 331 -189 357 -294 630 -40 104
-117 390 -142 525 -38 207 -48 253 -56 290 -6 22 -15 135 -22 250 -13 235 -5
370 37 625 79 480 178 797 369 1180 100 199 164 305 309 513 245 351 670 750
1007 946 41 24 123 72 181 106 58 33 157 83 220 109 63 27 148 63 189 81 92
40 141 56 295 94 203 51 345 78 470 91 66 6 129 13 140 15 11 2 151 2 310 0
248 -3 313 -7 450 -29z m-4456 -2912 l53 -15 -6 -50 c-3 -27 -9 -71 -12 -98
l-6 -49 -31 18 c-50 29 -146 51 -192 44 -97 -16 -199 -94 -244 -187 -45 -93
-53 -259 -14 -274 9 -4 60 9 114 27 l98 34 11 45 c8 31 24 58 51 83 l39 37 0
106 c0 58 4 105 9 105 20 0 141 -41 146 -50 8 -13 -15 -142 -28 -158 -7 -9 -4
-19 10 -35 l20 -22 -20 -125 c-11 -69 -25 -128 -31 -132 -24 -17 -90 -7 -134
18 l-44 26 -89 -38 c-49 -20 -92 -41 -95 -45 -10 -17 29 -80 68 -111 22 -17
56 -37 76 -44 50 -18 155 -17 197 0 33 14 35 14 35 -5 0 -11 -5 -29 -10 -40
-7 -13 -7 -19 0 -19 23 0 8 -21 -20 -26 -16 -4 -27 -11 -24 -16 4 -6 0 -14 -7
-19 -10 -7 -5 -8 14 -6 16 2 33 10 38 18 7 11 9 9 9 -8 0 -18 -7 -23 -46 -29
-300 -45 -550 239 -515 584 21 196 116 333 287 414 60 28 163 56 215 57 14 1
49 -6 78 -15z m-161 -278 c-3 -103 -3 -103 -39 -143 -20 -23 -43 -57 -50 -77
-12 -33 -21 -39 -91 -66 -42 -17 -84 -30 -92 -30 -35 0 -33 143 2 224 44 97
165 192 250 195 24 1 24 1 20 -103z m-5 -428 c28 -14 59 -22 95 -21 l52 0 0
-43 c0 -61 -14 -89 -51 -105 -57 -23 -127 -17 -188 16 -51 28 -111 88 -111
111 0 12 113 61 143 63 10 1 37 -9 60 -21z m149 -373 c4 -5 8 -23 8 -40 l0
-30 -62 3 c-124 6 -278 -43 -380 -121 l-46 -36 -16 40 c-9 22 -16 46 -16 55 0
17 42 43 160 99 l85 40 130 0 c75 0 133 -4 137 -10z m32 -120 c89 -23 207 -89
281 -157 162 -148 244 -323 389 -824 71 -246 93 -306 181 -495 113 -246 310
-572 460 -764 482 -618 1043 -1058 1730 -1359 210 -92 540 -193 800 -245 254
-51 420 -65 790 -65 371 -1 543 12 700 54 107 29 157 33 221 20 79 -16 166
-63 236 -129 154 -142 196 -410 90 -565 -15 -22 -35 -40 -44 -42 -22 -3 -22
-9 2 61 37 107 22 254 -38 375 -62 127 -217 237 -348 248 -62 5 -211 -13 -249
-30 -16 -7 -16 -8 5 -3 14 3 70 9 125 12 146 8 250 -25 340 -108 161 -148 195
-439 71 -602 -57 -76 -74 -78 -491 -73 -487 6 -731 29 -1250 117 -312 52 -643
142 -895 241 -175 70 -560 261 -715 355 -1047 639 -1719 1404 -2169 2473 -98
232 -189 418 -224 456 -15 16 -27 32 -27 35 0 4 -4 11 -9 16 -6 5 -6 2 -1 -6
6 -11 4 -13 -11 -6 -10 4 -67 11 -125 16 -65 5 -127 16 -162 29 -122 46 -223
150 -279 288 -20 49 -23 75 -23 178 l0 121 44 89 c70 141 210 263 337 293 62
14 195 12 258 -4z m-540 -2667 c-3 -5 13 -29 35 -53 23 -25 41 -48 41 -52 0
-8 -99 99 -100 108 0 3 7 6 15 6 8 0 12 -4 9 -9z m242 -166 c1 -7 0 -8 -3 -2
-2 5 -9 8 -14 4 -5 -3 -9 0 -9 6 0 15 23 7 26 -8z m-335 -9 c13 -16 12 -17 -3
-4 -10 7 -18 15 -18 17 0 8 8 3 21 -13z m40 0 c13 -16 12 -17 -3 -4 -10 7 -18
15 -18 17 0 8 8 3 21 -13z m-6 -43 c10 -11 16 -20 13 -20 -3 0 -13 9 -23 20
-10 11 -16 20 -13 20 3 0 13 -9 23 -20z m51 -62 l29 -33 -32 29 c-31 28 -38
36 -30 36 2 0 16 -15 33 -32z m164 -3 c13 -14 21 -25 18 -25 -2 0 -15 11 -28
25 -13 14 -21 25 -18 25 2 0 15 -11 28 -25z m111 8 c13 -16 12 -17 -3 -4 -10
7 -18 15 -18 17 0 8 8 3 21 -13z m74 -3 c3 -5 1 -10 -4 -10 -6 0 -11 5 -11 10
0 6 2 10 4 10 3 0 8 -4 11 -10z m-224 -134 c4 -5 11 -6 17 -2 6 3 13 2 17 -4
3 -5 -2 -10 -12 -10 -10 0 -43 26 -73 57 l-55 58 50 -45 c27 -25 52 -49 56
-54z m60 7 c13 -16 12 -17 -3 -4 -10 7 -18 15 -18 17 0 8 8 3 21 -13z m7295
-231 c158 -105 220 -225 212 -405 -5 -104 -25 -160 -78 -221 -42 -47 -108 -93
-146 -101 -24 -4 -22 -2 11 14 110 52 170 205 146 368 -25 168 -105 268 -256
320 l-48 16 34 18 c47 25 78 23 125 -9z m-136 -246 c-17 -16 -272 -146 -440
-226 -63 -29 -118 -55 -122 -57 -5 -3 -8 -2 -8 2 0 3 10 10 23 15 12 5 139 70
282 144 256 132 294 150 265 122z m-6047 -193 c-13 -2 -33 -2 -45 0 -13 2 -3
4 22 4 25 0 35 -2 23 -4z m-256 -19 c-3 -3 -12 -4 -19 -1 -8 3 -5 6 6 6 11 1
17 -2 13 -5z m190 -20 c-3 -3 -12 -4 -19 -1 -8 3 -5 6 6 6 11 1 17 -2 13 -5z
m251 -1 c-10 -2 -28 -2 -40 0 -13 2 -5 4 17 4 22 1 32 -1 23 -4z m-495 -10
c-7 -2 -19 -2 -25 0 -7 3 -2 5 12 5 14 0 19 -2 13 -5z m-276 -19 c-3 -3 -12
-4 -19 -1 -8 3 -5 6 6 6 11 1 17 -2 13 -5z m16 -21 c-7 -2 -21 -2 -30 0 -10 3
-4 5 12 5 17 0 24 -2 18 -5z m-60 -20 c-7 -2 -19 -2 -25 0 -7 3 -2 5 12 5 14
0 19 -2 13 -5z m1947 -72 c3 -2 -5 0 -17 3 -46 14 -21 -6 42 -35 82 -37 85
-46 5 -13 -70 28 -77 29 -60 9 16 -19 142 -91 153 -87 4 1 34 -11 66 -28 64
-32 71 -29 71 26 0 13 5 24 11 24 9 0 10 -21 5 -71 -3 -39 -9 -75 -11 -79 -5
-8 -166 24 -267 51 l-48 13 0 115 0 114 23 -19 c12 -10 24 -21 27 -23z m-2442
12 c-10 -2 -26 -2 -35 0 -10 3 -2 5 17 5 19 0 27 -2 18 -5z m2522 -99 c0 -2
-9 0 -20 6 -11 6 -20 13 -20 16 0 2 9 0 20 -6 11 -6 20 -13 20 -16z m116 -42
c-5 -4 -66 26 -66 33 0 3 16 -3 35 -12 19 -9 33 -18 31 -21z m-2253 21 c-7 -2
-21 -2 -30 0 -10 3 -4 5 12 5 17 0 24 -2 18 -5z m75 -10 c-10 -2 -26 -2 -35 0
-10 3 -2 5 17 5 19 0 27 -2 18 -5z m-60 -20 c-10 -2 -26 -2 -35 0 -10 3 -2 5
17 5 19 0 27 -2 18 -5z m2272 -8 c11 -13 10 -14 -4 -9 -9 3 -16 10 -16 15 0
13 6 11 20 -6z m-2202 -2 c-10 -2 -26 -2 -35 0 -10 3 -2 5 17 5 19 0 27 -2 18
-5z m6667 -2 c3 -5 1 -12 -5 -16 -5 -3 -10 -12 -10 -18 0 -8 3 -8 8 -2 4 6 16
17 26 25 18 14 19 13 13 -2 -5 -14 -1 -18 14 -18 16 0 20 5 16 20 -4 14 0 20
11 20 29 0 44 -16 40 -41 -2 -19 -10 -25 -38 -27 -41 -4 -150 17 -150 29 0 10
41 39 57 39 6 0 14 -4 18 -9z m-6577 -8 c-10 -2 -26 -2 -35 0 -10 3 -2 5 17 5
19 0 27 -2 18 -5z m5574 -651 c20 -20 -19 -52 -64 -52 -27 0 -38 4 -35 13 2 6
9 13 15 13 7 1 17 2 23 3 5 0 7 6 3 12 -15 24 35 34 58 11z m-122 -17 c0 -14
-4 -25 -10 -25 -5 0 -10 7 -10 15 0 18 -26 20 -33 3 -4 -8 -6 -7 -6 4 -1 17
12 26 42 27 12 1 17 -7 17 -24z"/>
<path d="M8010 9166 c0 -2 8 -10 18 -17 15 -13 16 -12 3 4 -13 16 -21 21 -21
13z"/>
<path d="M8190 9005 c406 -388 645 -679 887 -1080 236 -392 453 -948 549
-1405 15 -74 31 -137 36 -138 4 -2 6 -8 2 -13 -3 -5 1 -44 9 -87 73 -383 86
-919 32 -1367 -7 -60 -32 -220 -54 -354 -23 -134 -40 -245 -38 -247 6 -7 66
279 87 416 45 291 54 424 54 765 0 426 -24 641 -115 1054 -127 577 -387 1183
-696 1623 -232 330 -429 555 -688 786 -173 154 -192 168 -65 47z"/>
<path d="M9501 3972 c-14 -37 -48 -128 -77 -201 -30 -74 -52 -137 -50 -139 2
-2 31 66 64 150 82 209 96 248 91 253 -3 2 -15 -26 -28 -63z"/>
<path d="M9251 3383 c-10 -26 -10 -27 4 -9 8 11 15 23 15 28 0 15 -7 8 -19
-19z"/>
<path d="M9222 3325 c-17 -37 -14 -45 4 -12 9 16 14 31 11 33 -2 2 -9 -7 -15
-21z"/>
<path d="M5350 9463 c267 -7 427 -24 645 -68 121 -25 243 -51 270 -59 337 -96
477 -148 712 -266 376 -187 672 -399 964 -690 426 -423 753 -962 949 -1565
193 -595 249 -1174 175 -1808 -52 -441 -188 -899 -385 -1294 -185 -372 -385
-649 -661 -918 -141 -137 -273 -247 -405 -337 -79 -54 -79 -54 -194 -67 -293
-32 -532 -24 -845 29 -407 69 -894 233 -1207 406 -303 167 -653 421 -888 644
l-65 62 52 -5 c32 -4 92 -25 160 -57 147 -69 206 -87 331 -101 265 -28 527 44
684 189 14 13 30 22 35 19 5 -3 83 -10 173 -17 178 -12 256 -26 365 -67 87
-33 143 -88 210 -205 26 -46 68 -112 93 -148 54 -76 229 -260 248 -260 7 0 27
12 45 27 l32 27 18 -22 c9 -12 19 -28 22 -35 3 -8 15 -2 35 17 42 39 50 31
118 -110 60 -125 87 -154 145 -154 55 0 99 42 132 128 30 75 72 122 148 165
72 41 171 167 207 263 12 35 30 57 62 81 94 68 97 71 78 86 -17 13 -17 15 2
32 11 10 20 26 20 37 0 19 -15 24 -25 8 -3 -6 -34 -29 -68 -51 -68 -46 -137
-107 -137 -123 0 -5 15 4 33 21 39 38 104 73 134 73 37 0 27 -18 -24 -44 -29
-15 -79 -59 -126 -110 -43 -47 -76 -86 -73 -86 3 0 21 9 40 21 20 12 36 18 36
14 0 -19 -121 -143 -185 -191 -96 -70 -127 -109 -160 -193 -28 -75 -53 -101
-95 -101 -43 0 -97 71 -130 173 -6 21 -27 58 -46 82 -45 59 -22 59 47 0 29
-25 62 -45 73 -44 21 0 21 0 1 9 -33 14 -98 87 -90 101 5 8 4 10 -3 5 -19 -12
-14 5 13 40 14 18 25 39 25 47 0 12 13 10 62 -10 130 -53 208 -6 398 236 75
96 153 166 196 177 50 13 43 -4 -18 -43 -66 -43 -136 -111 -158 -154 -8 -14
14 1 51 36 35 33 94 78 132 99 85 50 90 86 11 86 -58 0 -130 -61 -249 -209
-103 -129 -177 -193 -243 -211 -44 -11 -108 -5 -118 12 -4 5 8 29 25 53 17 24
31 50 31 58 0 9 -29 39 -64 69 -121 100 -213 242 -301 459 -59 149 -91 205
-150 260 -50 48 -180 121 -323 181 -69 29 -127 59 -130 66 -6 18 15 106 36
147 8 17 52 69 97 116 46 47 86 96 90 107 7 24 25 30 25 8 0 -7 6 -19 14 -25
18 -15 32 -2 110 101 l56 75 0 88 c0 80 3 95 35 160 19 40 39 85 45 100 l10
27 80 -76 c120 -114 113 -112 332 -92 328 30 299 24 340 67 20 21 41 53 47 72
11 33 13 34 79 40 73 6 116 21 191 67 54 33 85 37 136 16 18 -8 36 -12 39 -8
12 11 6 50 -10 63 -15 12 -14 14 7 19 49 12 30 70 -22 70 -38 0 -37 -12 4 -29
l32 -14 -28 -4 c-16 -3 -39 3 -52 11 -13 9 -40 16 -60 16 -66 0 -33 40 34 41
l46 1 -35 10 c-51 14 -100 -11 -100 -52 0 -29 1 -30 51 -30 45 0 55 -4 88 -37
38 -39 30 -56 -13 -28 -32 21 -75 13 -136 -26 -73 -46 -115 -59 -209 -66 l-89
-6 -11 39 c-21 82 -23 95 -17 119 5 19 13 25 33 25 20 0 45 19 101 76 59 61
76 73 88 63 7 -6 12 -15 9 -19 -13 -21 17 -16 88 16 77 34 138 43 167 24 23
-14 5 -23 -54 -25 -39 -1 -65 -8 -90 -26 -20 -13 -36 -27 -36 -31 0 -13 29 -9
53 7 13 8 51 19 85 23 35 5 67 13 73 19 25 25 -25 63 -82 63 -17 0 -61 -13
-99 -30 -81 -36 -82 -36 -98 -10 -20 32 -38 24 -104 -45 -39 -41 -70 -66 -83
-65 -11 1 -83 4 -160 8 -137 7 -141 8 -187 39 -87 61 -183 193 -241 333 -20
47 -59 140 -87 208 -29 68 -50 125 -49 126 2 2 34 9 70 15 93 16 184 14 220
-4 16 -9 50 -19 75 -24 78 -15 154 39 154 111 0 40 12 68 27 68 12 0 14 -10
10 -47 -3 -27 -10 -61 -16 -76 -6 -16 -10 -56 -9 -90 l1 -62 7 70 c4 39 14 88
23 110 9 22 16 52 17 66 0 23 6 28 37 34 20 4 54 15 74 26 42 21 99 85 99 111
0 10 6 18 13 18 6 0 32 20 56 45 24 25 51 45 59 45 11 0 12 3 4 13 -6 7 -9 22
-6 33 4 14 -6 36 -30 66 -19 26 -33 49 -30 52 2 3 1 4 -3 1 -3 -3 -29 15 -57
39 -106 90 -293 194 -476 263 -35 13 -81 39 -101 58 -30 27 -49 35 -96 40
-139 15 -132 12 -163 92 -15 40 -37 88 -49 106 -31 50 -105 116 -159 140 -58
26 -152 28 -198 4 -39 -20 -122 -112 -130 -143 -6 -23 -6 -23 -62 15 -74 49
-110 61 -192 61 -85 0 -165 -37 -239 -112 -67 -67 -86 -127 -78 -245 7 -104
40 -177 115 -256 31 -31 53 -59 51 -61 -2 -2 -40 2 -83 10 -43 7 -82 12 -86 9
-6 -4 -67 7 -207 36 -29 6 -58 7 -64 3 -7 -4 -9 -3 -6 3 4 7 -8 14 -31 18 -56
10 -216 72 -312 120 -125 63 -217 133 -364 274 -141 135 -206 177 -321 206
-55 14 -144 21 -134 10 3 -2 45 -16 95 -30 130 -38 180 -72 344 -236 209 -211
366 -308 627 -388 182 -56 451 -102 620 -106 22 0 22 0 -4 -27 -25 -26 -26
-55 -1 -30 7 7 16 12 22 12 5 0 3 -6 -6 -12 -9 -7 -24 -26 -34 -43 -19 -28
-19 -29 0 -22 18 7 18 6 2 -18 -9 -14 -15 -29 -12 -34 3 -5 -23 -36 -58 -70
-62 -59 -66 -61 -116 -61 -29 0 -83 -8 -122 -17 -67 -16 -71 -16 -137 5 -136
44 -408 68 -478 41 -40 -15 -81 -57 -192 -194 -232 -288 -306 -395 -293 -423
4 -9 8 -33 8 -53 -1 -31 -9 -42 -63 -87 -71 -59 -105 -102 -123 -153 -28 -79
21 -86 60 -9 22 44 24 50 12 50 -5 0 -21 -17 -35 -37 -38 -53 -34 -17 4 41 32
48 143 146 166 146 7 0 23 -14 35 -31 28 -38 84 -73 103 -65 12 4 15 -3 15
-34 0 -22 7 -67 16 -99 15 -54 15 -60 -1 -94 -22 -47 -44 -49 -38 -4 2 18 -2
40 -10 51 -13 18 -19 19 -55 8 -52 -16 -96 -67 -118 -137 -12 -36 -21 -51 -26
-43 -12 20 -9 84 5 125 8 21 19 53 25 72 11 32 10 33 -7 17 -13 -12 -20 -14
-23 -5 -2 6 -16 -25 -32 -69 -15 -44 -34 -89 -42 -99 -12 -16 -13 -15 -14 17
0 39 41 134 72 167 35 37 13 37 -26 0 -43 -41 -66 -92 -66 -146 0 -80 27 -95
59 -33 l20 37 1 -46 c0 -51 19 -85 42 -76 9 3 26 35 38 71 15 46 32 74 57 96
45 40 65 36 75 -14 17 -80 44 -79 80 1 17 40 18 46 3 108 -28 122 -16 160 45
148 22 -4 37 9 104 82 43 47 109 111 147 141 l68 54 101 -19 c99 -20 155 -43
165 -68 10 -27 -16 -156 -45 -226 -17 -40 -48 -94 -70 -122 -133 -168 -194
-254 -243 -341 -57 -101 -124 -284 -149 -403 l-12 -63 -97 4 c-90 3 -103 7
-181 46 -182 90 -305 277 -357 542 -6 30 -20 129 -31 219 -48 380 -92 519
-239 759 -200 326 -498 518 -813 525 -75 1 -98 5 -98 16 0 21 67 265 101 366
175 523 526 1059 932 1424 257 230 457 365 761 515 455 226 816 314 1291 317
148 1 179 3 140 11 -85 15 -379 12 -505 -7 -396 -57 -802 -202 -1145 -408
-585 -351 -1040 -848 -1336 -1462 -110 -227 -162 -365 -221 -584 l-52 -191
-37 0 -37 0 23 103 c13 56 37 140 54 187 17 47 31 101 31 120 0 22 31 104 86
225 47 105 93 208 101 230 15 42 72 138 85 143 5 2 8 9 8 17 0 12 59 99 134
196 20 26 40 57 45 70 13 32 163 205 229 265 30 26 67 70 84 98 47 81 91 132
171 195 40 33 79 67 87 75 7 9 18 16 25 16 7 0 30 21 51 47 66 80 66 80 59 63
-4 -8 4 -2 19 14 14 16 26 35 26 43 0 7 7 13 14 13 17 0 114 50 100 51 -5 0
13 9 39 20 26 10 60 28 76 40 15 11 34 22 42 23 27 6 49 18 44 26 -7 11 24 22
37 13 7 -4 8 -1 3 6 -5 9 0 12 16 9 15 -2 24 2 24 11 0 7 10 20 23 29 14 9 22
11 22 3 0 -7 16 -3 40 9 23 12 107 48 188 81 335 136 798 248 1040 251 62 1
111 3 109 5 -11 10 -241 34 -423 43 -571 30 -1043 -67 -1561 -321 -149 -73
-459 -273 -613 -395 -165 -131 -479 -461 -549 -577 -13 -21 -43 -61 -68 -90
-169 -197 -375 -588 -491 -929 -120 -354 -174 -577 -208 -873 -78 -661 96
-1380 507 -2092 137 -238 260 -431 326 -512 30 -36 94 -118 143 -181 130 -170
551 -580 800 -782 25 -19 86 -60 135 -89 50 -29 139 -86 200 -127 132 -90 196
-122 402 -206 304 -123 569 -202 775 -230 402 -55 783 -46 1173 29 252 49 358
83 657 216 317 141 333 133 38 -18 -463 -238 -888 -343 -1389 -343 -358 0
-655 49 -1016 168 -590 195 -1154 572 -1635 1092 -361 390 -606 758 -853 1276
-174 366 -266 683 -338 1169 -7 44 -12 170 -12 280 0 333 49 653 157 1015 8
25 24 79 36 120 83 282 316 747 491 980 27 36 63 85 81 110 69 96 174 221 293
345 68 72 127 134 132 139 4 6 -31 -25 -79 -68 -102 -93 -166 -164 -313 -346
-260 -323 -483 -732 -609 -1115 -151 -462 -227 -945 -205 -1300 24 -384 129
-829 285 -1200 132 -313 383 -759 557 -990 620 -819 1376 -1364 2192 -1580
289 -76 523 -107 830 -107 544 -1 997 115 1498 382 329 176 632 420 887 715
461 533 769 1264 867 2055 26 209 26 776 0 975 -59 457 -196 926 -387 1322
-292 607 -721 1116 -1251 1486 -208 145 -518 311 -749 402 -421 166 -912 259
-1325 253 -110 -2 -115 -3 -35 -5z m-2010 -1567 c0 -2 -8 -10 -17 -17 -16 -13
-17 -12 -4 4 13 16 21 21 21 13z m-375 -247 c119 -11 145 -16 145 -28 0 -6
-14 -6 -32 -1 -18 5 -127 16 -243 25 -115 9 -212 19 -215 22 -6 6 209 -5 345
-18z m105 -209 c-22 -31 -40 -46 -40 -34 0 8 51 64 58 64 2 0 -6 -13 -18 -30z
m3440 -26 c78 -23 166 -114 203 -209 15 -39 27 -76 27 -83 0 -15 -44 -6 -77
16 -17 10 -23 11 -23 2 0 -8 -7 -10 -17 -5 -10 4 -23 8 -29 9 -7 1 -43 28 -81
59 -39 31 -75 57 -82 57 -6 0 -29 11 -51 25 -22 14 -48 25 -57 25 -15 0 -16 2
-3 10 11 6 12 12 4 20 -7 7 -19 4 -40 -12 l-29 -23 23 32 c38 53 100 90 158
92 11 1 45 -6 74 -15z m-411 -101 c72 -34 200 -165 241 -246 29 -59 41 -137
20 -137 -5 0 -10 5 -10 10 0 6 -4 10 -10 10 -5 0 -10 -15 -10 -32 l-1 -33 -33
37 c-22 25 -40 63 -55 115 -41 140 -85 202 -174 246 -79 38 -151 45 -211 18
-51 -22 -130 -80 -122 -88 3 -3 19 6 35 20 78 66 194 74 292 21 60 -33 99 -82
130 -163 24 -62 33 -172 16 -183 -7 -4 -7 -11 2 -22 8 -9 15 -34 16 -56 3 -32
-1 -42 -16 -51 -16 -8 -26 -5 -50 15 -20 18 -25 26 -15 26 24 0 19 15 -16 55
-17 20 -32 44 -33 53 -1 9 -6 25 -10 35 -4 9 -5 31 -3 47 7 49 -23 31 -36 -21
-9 -39 11 -84 50 -114 38 -29 47 -53 13 -35 -23 13 -22 13 -38 -17 -16 -31
-15 -32 23 -26 19 3 36 1 40 -6 4 -6 1 -11 -6 -11 -7 0 0 -10 16 -23 82 -66
-62 -122 -212 -83 -158 42 -261 173 -270 342 -6 104 8 145 71 211 115 122 231
149 366 86z m-1531 -88 c15 -14 23 -25 19 -25 -4 0 -20 11 -35 25 -15 14 -23
25 -19 25 4 0 20 -11 35 -25z m1922 -24 c25 -21 43 -41 40 -44 -3 -3 -27 15
-55 39 -27 24 -45 44 -40 44 6 0 30 -18 55 -39z m-1770 -139 c0 -8 -74 69
-104 108 -11 14 8 -3 42 -38 34 -35 62 -66 62 -70z m-2143 82 c-3 -3 -12 -4
-19 -1 -8 3 -5 6 6 6 11 1 17 -2 13 -5z m50 0 c-3 -3 -12 -4 -19 -1 -8 3 -5 6
6 6 11 1 17 -2 13 -5z m281 -18 c-2 -1 -57 1 -123 4 l-120 5 110 5 c61 3 116
1 123 -4 7 -5 11 -9 10 -10z m3612 -26 c8 -5 12 -11 9 -14 -3 -3 -14 1 -25 9
-21 16 -8 20 16 5z m64 -6 c31 -30 10 -34 -25 -4 -19 15 -21 19 -7 20 9 0 24
-7 32 -16z m77 -10 c7 -8 9 -17 6 -21 -8 -7 -57 24 -57 36 0 13 37 2 51 -15z
m54 6 c4 -6 11 -8 16 -5 5 4 60 -2 123 -11 105 -16 118 -20 156 -53 23 -19 50
-36 59 -38 23 -3 158 -61 237 -101 156 -79 384 -262 384 -309 0 -12 -11 -34
-24 -50 -21 -24 -27 -26 -47 -16 -13 6 -32 14 -43 17 -13 4 -17 13 -13 27 4
15 1 19 -11 17 -25 -5 -28 -72 -5 -95 23 -23 18 -48 -19 -95 -48 -61 -138
-103 -138 -64 0 8 9 12 25 11 21 -3 25 1 26 23 1 18 3 21 6 9 6 -24 27 -16 31
11 2 13 8 19 18 15 9 -3 14 1 14 12 0 11 5 15 15 11 18 -6 19 -1 5 25 -7 13
-7 19 -1 19 6 0 3 15 -6 35 -14 29 -15 43 -6 81 11 48 10 54 -30 141 -5 12
-18 24 -29 26 -11 3 -22 15 -25 26 -3 11 -9 19 -13 16 -5 -3 -15 3 -22 12 -17
23 -78 66 -85 60 -2 -3 -13 3 -24 14 -11 11 -24 17 -30 13 -6 -3 -17 4 -26 15
-8 12 -20 20 -26 18 -7 -2 -24 4 -39 15 -16 11 -33 16 -38 13 -6 -4 -19 4 -30
17 -11 13 -19 17 -20 10 0 -12 -22 2 -111 66 -19 15 -30 17 -144 27 -38 4 -76
12 -82 17 -9 7 -13 7 -13 -1 0 -18 -25 -13 -45 9 -18 19 -17 20 3 20 11 0 24
-5 27 -10z m-3788 -52 c-3 -8 -6 -5 -6 6 -1 11 2 17 5 13 3 -3 4 -12 1 -19z
m1818 12 c3 -5 1 -10 -4 -10 -6 0 -11 5 -11 10 0 6 2 10 4 10 3 0 8 -4 11 -10z
m-1828 -52 c-3 -8 -6 -5 -6 6 -1 11 2 17 5 13 3 -3 4 -12 1 -19z m1928 -28 c3
-5 1 -10 -4 -10 -6 0 -11 5 -11 10 0 6 2 10 4 10 3 0 8 -4 11 -10z m-1964 -41
c-21 -17 -35 -19 -85 -15 -34 3 -140 8 -236 12 -96 3 -177 8 -180 11 -3 3 109
3 248 0 220 -5 254 -4 259 9 3 8 8 12 12 9 3 -4 -5 -16 -18 -26z m3969 15 c33
-20 80 -90 80 -120 0 -56 -145 -105 -207 -71 -19 10 -11 12 53 12 73 0 77 1
105 33 28 31 28 33 11 54 -43 54 -75 78 -106 78 -29 0 -72 -21 -87 -42 -3 -5
-13 -6 -22 -2 -14 5 -12 9 11 28 60 50 111 59 162 30z m-4490 -4 c0 -5 -5 -10
-11 -10 -5 0 -7 5 -4 10 3 6 8 10 11 10 2 0 4 -4 4 -10z m2517 4 c-3 -3 -12
-4 -19 -1 -8 3 -5 6 6 6 11 1 17 -2 13 -5z m1401 -54 c0 -9 -3 -7 -8 5 -5 11
-8 29 -8 40 0 16 2 15 8 -5 4 -14 8 -32 8 -40z m-1298 -6 c0 -2 -7 -4 -15 -4
-8 0 -15 4 -15 10 0 5 7 7 15 4 8 -4 15 -8 15 -10z m1842 -1 c19 -17 24 -48 9
-58 -5 -3 -11 4 -13 16 -2 12 -11 27 -20 33 -13 8 -23 5 -43 -14 -28 -27 -36
-8 -8 22 20 22 51 23 75 1z m-1802 -19 c0 -8 -19 -13 -24 -6 -3 5 1 9 9 9 8 0
15 -2 15 -3z m290 -114 c0 -5 -5 -10 -11 -10 -5 0 -7 5 -4 10 3 6 8 10 11 10
2 0 4 -4 4 -10z m90 -24 c0 -3 -4 -8 -10 -11 -5 -3 -10 -1 -10 4 0 6 5 11 10
11 6 0 10 -2 10 -4z m105 -26 c-3 -5 -11 -10 -16 -10 -6 0 -7 5 -4 10 3 6 11
10 16 10 6 0 7 -4 4 -10z m335 -24 c0 -3 -4 -8 -10 -11 -5 -3 -10 -1 -10 4 0
6 5 11 10 11 6 0 10 -2 10 -4z m-3100 -38 c0 -5 -4 -8 -10 -8 -5 0 -10 10 -10
23 0 18 2 19 10 7 5 -8 10 -18 10 -22z m3150 22 c13 -8 13 -10 -2 -10 -9 0
-25 -3 -35 -7 -16 -6 -16 -5 -4 10 16 20 20 20 41 7z m-2647 -29 c236 -62 446
-225 611 -475 143 -218 202 -403 241 -756 23 -211 42 -312 75 -403 102 -277
308 -447 544 -447 l69 0 -7 -37 c-3 -21 -6 -51 -6 -67 l0 -28 -57 6 c-94 11
-203 45 -273 83 -87 48 -212 176 -271 278 -89 152 -120 271 -164 616 -30 240
-46 324 -90 456 -43 128 -77 196 -155 305 -133 186 -323 332 -512 393 -59 19
-114 35 -122 35 -10 0 -12 7 -9 21 5 16 2 20 -8 17 -8 -3 -13 -10 -12 -15 1
-6 -35 -11 -87 -11 -53 -1 -90 2 -90 8 0 6 -4 10 -10 10 -5 0 -7 -6 -4 -14 4
-11 -5 -17 -33 -21 -143 -25 -286 -92 -415 -194 -56 -43 -83 -59 -88 -51 -5 8
-10 9 -14 2 -3 -6 0 -12 6 -15 9 -3 3 -16 -18 -38 -17 -19 -35 -41 -40 -50 -5
-9 -22 -31 -37 -49 -23 -26 -31 -30 -37 -20 -5 8 -11 12 -14 9 -3 -2 8 -24 25
-48 75 -113 77 -297 4 -408 -19 -29 -42 -53 -50 -53 -40 0 2 -96 57 -131 27
-16 46 -19 98 -17 84 5 147 36 211 106 66 72 83 132 77 261 -5 101 -20 148
-65 214 -32 47 -132 123 -173 132 -16 4 -33 11 -36 16 -9 15 82 99 107 99 92
0 242 -183 269 -329 15 -79 12 -218 -5 -286 -37 -139 -131 -257 -257 -319
l-73 -37 -135 3 -134 3 -13 75 c-7 41 -18 113 -23 159 l-11 85 35 32 c35 32
50 71 62 156 7 50 -11 151 -29 166 -9 8 -12 -19 -13 -116 -2 -126 -18 -208
-39 -200 -16 5 -10 435 8 556 8 57 17 105 19 108 4 3 178 -26 186 -32 2 -1
-24 -39 -57 -84 -56 -74 -70 -100 -56 -100 3 0 30 35 61 78 84 114 191 209
301 266 104 53 274 108 373 120 71 9 227 -3 303 -23z m-116 -66 c253 -53 473
-207 630 -440 125 -186 171 -341 224 -757 45 -356 80 -472 193 -643 81 -120
184 -214 298 -269 95 -46 211 -76 291 -76 l44 0 7 -61 c3 -34 18 -87 32 -119
l26 -58 -22 -43 c-29 -57 -59 -89 -84 -89 -11 0 -49 7 -84 16 -53 13 -77 14
-129 6 -51 -9 -74 -8 -114 4 -56 17 -134 15 -134 -3 0 -25 -14 -22 -42 10 -82
94 -146 91 -197 -10 -9 -18 -20 -33 -25 -33 -13 0 -192 190 -264 281 -66 82
-112 148 -279 404 -126 193 -237 333 -364 460 l-96 95 56 61 c101 109 146 236
146 414 0 169 -54 328 -154 456 -38 48 -139 128 -178 141 -10 4 -9 27 5 114
28 168 20 154 87 154 32 0 89 -7 127 -15z m-217 -3 c0 -4 -11 -71 -25 -147
-23 -132 -72 -503 -94 -715 -18 -171 -21 -293 -12 -430 5 -74 7 -137 5 -139
-5 -6 -54 -4 -61 2 -3 4 -8 101 -10 217 -3 191 -2 213 16 247 51 103 70 239
51 378 -17 131 -18 139 -28 164 -7 19 -3 29 14 48 14 16 24 42 28 81 17 144
46 267 67 285 22 18 49 23 49 9z m4687 -62 c13 0 23 -5 23 -11 0 -6 -14 -9
-32 -7 -24 2 -34 9 -36 23 -3 16 -1 18 9 8 7 -7 23 -13 36 -13z m-1697 -39 c0
-5 -7 -12 -16 -15 -14 -5 -15 -4 -4 9 14 17 20 19 20 6z m-9 -55 c-13 -15 12
-74 35 -83 8 -3 14 -10 14 -16 0 -14 70 -77 98 -88 12 -5 21 -14 20 -21 -2 -7
8 -14 21 -16 17 -3 20 -6 12 -12 -9 -5 1 -18 34 -44 27 -20 54 -36 61 -36 8 0
14 -4 14 -8 0 -5 47 -39 105 -76 58 -37 105 -70 105 -72 0 -4 -91 -151 -116
-188 -12 -17 -21 -11 -119 85 -155 150 -254 296 -299 436 -23 71 -15 153 16
153 7 0 7 -4 -1 -14z m-69 -74 c-15 -20 -22 -48 -25 -93 l-3 -64 -2 68 c-2 56
2 74 19 99 12 16 23 27 26 24 3 -3 -4 -18 -15 -34z m1538 -22 c0 -5 -15 -10
-32 -9 -31 1 -32 1 -8 9 35 11 40 11 40 0z m-2153 -11 c43 -6 122 -21 177 -35
73 -17 114 -22 156 -17 62 6 100 -7 135 -48 l20 -23 -29 22 c-24 18 -42 22
-103 22 -44 0 -136 13 -226 31 -147 31 -316 42 -372 26 -11 -3 -23 -6 -27 -6
-4 -1 -35 -36 -69 -78 -35 -43 -86 -103 -113 -133 -28 -30 -73 -80 -100 -110
-78 -88 -25 -11 104 148 134 167 156 190 196 202 41 12 160 12 251 -1z m2017
-17 c34 -13 43 -21 32 -25 -9 -4 -23 -4 -32 0 -10 4 -20 0 -26 -10 -5 -10 -13
-17 -18 -17 -17 0 -40 32 -40 56 0 28 -1 28 84 -4z m-4281 -21 c159 -111 257
-327 257 -568 0 -155 -48 -289 -143 -397 l-42 -48 -93 62 -93 63 38 17 c122
57 193 207 179 377 -12 132 -54 235 -128 317 l-44 49 10 78 c5 44 11 79 13 79
2 0 23 -13 46 -29z m2801 23 c35 -13 13 -24 -49 -24 -90 0 -85 24 7 29 14 0
33 -2 42 -5z m1342 -27 c11 -6 36 -22 55 -35 19 -12 41 -21 50 -19 23 6 71
-36 64 -55 -9 -23 -59 -41 -94 -33 -31 7 -115 86 -139 131 -12 23 -11 24 15
24 15 0 37 -6 49 -13z m194 -29 c0 -7 -5 -20 -10 -28 -12 -19 -35 2 -27 24 7
19 37 21 37 4z m-4865 -33 c57 -25 155 -101 155 -118 0 -7 -23 -36 -50 -64
-43 -46 -55 -53 -89 -53 -21 0 -52 -3 -68 -6 -29 -6 -30 -4 -47 58 -9 34 -26
82 -36 105 l-18 42 31 35 c35 39 38 39 122 1z m3392 -77 c-3 -7 -5 -2 -5 12 0
14 2 19 5 13 2 -7 2 -19 0 -25z m-2897 -60 c97 -106 136 -330 85 -480 -27 -79
-121 -168 -176 -168 -23 0 12 493 47 658 6 29 9 28 44 -10z m3817 -40 c-3 -35
-15 -89 -26 -122 -15 -43 -18 -63 -10 -77 16 -30 22 -139 13 -215 l-8 -69 -6
90 c-3 55 -12 103 -23 124 -20 41 -21 47 -4 32 11 -8 14 -5 14 19 0 28 -2 29
-18 14 -16 -15 -19 -14 -34 16 -9 18 -23 51 -31 73 l-14 41 69 68 c38 37 73
68 77 68 4 0 4 -28 1 -62z m107 -107 c9 -30 13 -51 10 -48 -11 11 -76 171 -80
197 -6 36 51 -84 70 -149z m-2084 115 c0 -2 -8 -10 -17 -17 -16 -13 -17 -12
-4 4 13 16 21 21 21 13z m1650 -41 c20 -24 5 -28 -21 -6 -19 16 -20 20 -8 21
9 0 22 -7 29 -15z m-397 -249 c2 -183 0 -208 -21 -280 -58 -200 -160 -426
-237 -525 -24 -31 -76 -87 -116 -126 -71 -68 -44 -36 68 82 83 87 213 374 261
578 24 100 27 129 27 312 0 111 3 192 8 181 4 -12 8 -111 10 -222z m567 228
c0 -3 -19 -34 -41 -70 l-42 -66 -40 41 c-48 47 -44 63 7 31 42 -26 45 -19 11
22 -24 28 -27 54 -4 31 13 -13 55 -5 69 13 10 11 40 10 40 -2z m-288 -264 c7
0 22 7 32 15 11 8 28 13 37 10 11 -4 19 0 21 12 3 13 11 6 31 -28 26 -44 27
-47 12 -95 -50 -171 -116 -462 -114 -501 1 -10 9 14 19 52 10 41 18 59 19 43
0 -14 -15 -88 -34 -164 -31 -123 -37 -179 -15 -144 5 9 9 9 14 1 4 -6 2 -11
-3 -11 -6 0 -11 -6 -11 -14 0 -7 -14 -48 -31 -89 -23 -58 -28 -81 -20 -94 8
-14 10 -15 11 -3 0 28 70 161 80 155 17 -10 11 -34 -25 -106 -19 -39 -35 -73
-35 -77 0 -12 69 90 76 111 6 18 8 17 20 -12 8 -18 11 -38 7 -45 -3 -6 -3 -8
2 -4 8 7 55 -43 55 -60 0 -22 -81 -129 -126 -166 -40 -34 -119 -64 -133 -50
-2 2 10 19 28 39 48 55 37 55 -19 0 -49 -48 -68 -51 -31 -4 26 33 91 165 91
184 0 9 -23 -29 -51 -84 -70 -138 -71 -138 -166 -118 -42 9 -81 21 -86 26 -6
6 1 20 17 36 15 15 25 29 22 32 -6 6 -51 -38 -57 -56 -4 -10 -23 -7 -83 15
-66 23 -79 25 -88 13 -8 -12 -9 -11 -5 1 3 11 -17 29 -67 60 -84 51 -123 80
-109 80 6 0 16 -7 23 -15 7 -8 17 -15 23 -15 6 0 -4 15 -21 33 -18 18 -29 36
-26 40 4 3 27 -18 52 -48 25 -30 48 -53 50 -51 5 6 -49 88 -67 102 -8 6 -11
16 -7 22 12 20 24 13 35 -21 7 -19 22 -49 36 -67 13 -18 22 -38 18 -44 -4 -8
-2 -8 5 -1 9 8 1 31 -28 86 l-40 76 26 22 c14 12 27 21 28 19 2 -2 11 -34 20
-72 16 -65 53 -152 61 -144 2 2 -9 46 -25 98 -17 52 -30 102 -30 112 0 10 -5
18 -11 18 -5 0 -7 5 -3 11 5 8 9 8 14 -1 6 -9 11 -7 19 6 9 17 10 17 11 2 0
-9 4 -20 10 -23 6 -4 9 9 8 32 -1 28 8 53 36 96 64 100 136 255 177 381 61
188 71 251 72 430 l1 159 32 -37 c43 -50 53 -45 13 7 -18 23 17 -6 78 -65 62
-60 118 -108 125 -108z m-1046 127 c28 -14 77 -43 110 -64 32 -22 68 -43 79
-47 12 -5 15 -10 8 -13 -14 -5 -61 18 -126 63 -54 38 -145 74 -185 74 -15 0
-34 5 -42 11 -32 23 106 2 156 -24z m-216 9 c0 -2 -17 -15 -39 -29 -21 -14
-67 -51 -102 -83 -49 -44 -55 -48 -24 -15 61 66 165 146 165 127z m1847 -48
c-3 -8 -6 -5 -6 6 -1 11 2 17 5 13 3 -3 4 -12 1 -19z m-277 -64 c-17 -51 -23
-35 -8 22 7 27 14 41 16 31 2 -9 -2 -33 -8 -53z m56 19 c11 -18 22 -66 30
-133 11 -97 10 -115 -12 -249 -13 -80 -24 -146 -24 -148 0 -2 -4 -3 -10 -3 -5
0 -10 9 -10 20 0 11 -12 79 -26 151 -36 189 -37 210 0 307 17 45 31 82 32 82
1 0 10 -12 20 -27z m344 -173 c55 -81 118 -150 137 -150 20 0 8 -16 -18 -23
-15 -4 -19 -2 -15 8 2 7 -6 21 -20 30 -39 25 -113 132 -155 223 -47 100 -50
118 -6 37 18 -33 52 -89 77 -125z m-179 128 c15 -28 5 -21 -21 15 -15 20 -17
27 -6 18 9 -8 22 -23 27 -33z m-2297 4 c18 -34 83 -94 128 -118 26 -14 29 -19
15 -22 -29 -6 -63 6 -97 35 -54 45 -100 133 -70 133 5 0 16 -13 24 -28z m833
-49 c-3 -10 -5 -4 -5 12 0 17 2 24 5 18 2 -7 2 -21 0 -30z m1213 7 c-6 -11
-16 -20 -22 -20 -6 0 -3 9 7 20 10 11 20 20 22 20 2 0 -1 -9 -7 -20z m280 -46
c0 -44 -29 -179 -37 -171 -2 2 4 35 13 73 8 38 14 88 12 111 -2 22 0 39 5 36
4 -2 7 -24 7 -49z m-2077 -8 c-15 -19 -32 -35 -37 -35 -6 -1 5 15 24 34 43 45
50 45 13 1z m1669 -63 c-11 -37 -25 -92 -32 -121 -7 -29 -23 -83 -37 -120
l-24 -67 6 48 c4 26 26 116 51 199 24 84 45 154 45 157 1 3 3 -2 6 -11 2 -9
-5 -47 -15 -85z m-1095 50 c-3 -10 -5 -4 -5 12 0 17 2 24 5 18 2 -7 2 -21 0
-30z m-3042 -43 c3 -5 2 -10 -4 -10 -5 0 -13 5 -16 10 -3 6 -2 10 4 10 5 0 13
-4 16 -10z m2994 -97 c-37 -89 -72 -144 -140 -220 -33 -36 -46 -58 -42 -69 4
-12 3 -15 -5 -10 -20 12 -14 24 61 114 53 64 82 111 111 179 22 51 42 91 44
89 2 -2 -11 -39 -29 -83z m1278 -65 c-3 -8 -6 -5 -6 6 -1 11 2 17 5 13 3 -3 4
-12 1 -19z m843 -19 c0 -16 -21 -19 -160 -22 -143 -2 -178 4 -118 22 39 12
278 12 278 0z m15 -37 c-19 -27 -39 -59 -44 -73 -6 -15 -10 -18 -10 -8 -1 25
25 81 49 107 37 40 41 23 5 -26z m-848 -9 c-3 -10 -5 -4 -5 12 0 17 2 24 5 18
2 -7 2 -21 0 -30z m-3602 -77 c73 -49 220 -197 324 -326 74 -92 99 -128 266
-385 114 -177 232 -328 350 -453 92 -96 119 -132 100 -132 -6 0 -140 140 -197
205 -68 79 -226 282 -283 365 -196 285 -295 411 -430 546 -60 61 -148 138
-195 170 -59 42 -86 67 -88 84 l-4 23 49 -28 c26 -16 75 -46 108 -69z m1430
64 c-4 -12 -9 -19 -12 -17 -3 3 -2 15 2 27 4 12 9 19 12 17 3 -3 2 -15 -2 -27z
m2193 -125 c0 -22 -3 -18 -9 15 -4 25 -7 59 -7 75 0 22 3 18 9 -15 4 -25 7
-58 7 -75z m-208 90 c-7 -9 -15 -13 -17 -11 -7 7 7 26 19 26 6 0 6 -6 -2 -15z
m308 -146 c-24 -62 -44 -106 -46 -97 -3 16 78 221 85 215 2 -3 -16 -55 -39
-118z m695 -49 c10 -19 12 -30 5 -28 -18 6 -37 68 -36 118 l0 45 8 -52 c4 -28
15 -65 23 -83z m-448 -78 c-8 -8 -175 167 -175 183 0 6 41 -32 91 -83 50 -51
88 -96 84 -100z m-1920 53 c-25 -39 -49 -81 -52 -95 -3 -14 -12 -34 -20 -46
-7 -11 -11 -23 -8 -26 3 -3 -3 -26 -14 -52 -11 -25 -20 -48 -20 -51 0 -3 -8
-31 -18 -63 -10 -31 -18 -61 -18 -67 0 -5 -4 -16 -8 -22 -5 -8 -3 -13 5 -13
10 0 10 -2 1 -8 -7 -4 -15 -26 -18 -47 -3 -22 -8 -46 -11 -54 -3 -9 1 -11 13
-7 16 6 16 6 0 -12 -21 -23 -21 -30 1 -34 12 -3 7 -7 -15 -15 l-33 -12 0 37
c0 85 77 360 141 502 40 89 113 196 117 172 2 -10 -18 -49 -43 -87z m1582 33
c-2 -13 -4 -3 -4 22 0 25 2 35 4 23 2 -13 2 -33 0 -45z m-3696 -15 l24 -26
-32 23 c-34 25 -39 30 -25 30 5 0 19 -12 33 -27z m-426 -24 c-22 -4 -83 -7
-135 -7 l-95 2 90 6 c50 3 110 7 135 7 l45 1 -40 -9z m4138 -109 c3 -70 2 -92
-3 -65 -9 39 -14 182 -6 174 2 -2 6 -51 9 -109z m752 95 c-17 -7 -305 -35
-356 -35 -36 0 -49 4 -49 15 0 11 19 15 88 18 134 5 328 6 317 2z m-4263 -142
c10 -9 18 -21 18 -26 0 -6 -9 -2 -19 7 -15 14 -29 16 -58 12 -32 -5 -548 -27
-665 -29 -24 0 -35 -4 -31 -11 3 -6 0 -5 -7 1 -8 7 -12 14 -9 17 2 2 110 9
239 16 129 6 280 15 335 19 161 13 177 12 197 -6z m2438 -223 c0 -5 -5 -10
-11 -10 -5 0 -7 5 -4 10 3 6 8 10 11 10 2 0 4 -4 4 -10z m-2213 -87 c5 -14
-48 -20 -312 -34 -115 -5 -262 -14 -325 -19 -131 -11 -186 -12 -178 -5 9 10
392 41 623 51 77 4 147 10 155 15 18 10 32 7 37 -8z m-873 -59 c3 -8 2 -12 -4
-9 -6 3 -10 10 -10 16 0 14 7 11 14 -7z m-24 -14 c6 -11 8 -20 6 -20 -3 0 -10
9 -16 20 -6 11 -8 20 -6 20 3 0 10 -9 16 -20z m70 10 c0 -5 -2 -10 -4 -10 -3
0 -8 5 -11 10 -3 6 -1 10 4 10 6 0 11 -4 11 -10z m3264 -79 c-8 -30 -19 -50
-24 -45 -5 5 -1 33 8 61 9 29 20 49 24 45 4 -4 1 -32 -8 -61z m269 -18 c37 -8
67 -19 67 -23 0 -4 -32 -1 -71 8 -69 15 -72 15 -86 -4 -8 -10 -13 -32 -11 -49
3 -28 7 -31 66 -43 34 -8 62 -17 62 -22 0 -8 -42 0 -122 21 -43 11 -44 15 -22
88 12 42 19 51 32 46 9 -4 47 -13 85 -22z m172 -13 c-27 -12 -43 -12 -25 0 8
5 22 9 30 9 10 0 8 -3 -5 -9z m-55 -9 c0 -5 -5 -11 -11 -13 -6 -2 -14 -21 -18
-43 -3 -21 -12 -40 -20 -43 -11 -4 -12 1 -6 19 4 13 9 39 12 57 4 23 10 32 24
32 10 0 19 -4 19 -9z m-1210 -291 c66 -132 170 -252 274 -319 54 -34 208 -92
318 -120 42 -11 173 -32 290 -47 117 -14 218 -31 223 -36 7 -7 0 -8 -20 -4
-16 3 -70 8 -120 11 -235 15 -391 46 -558 110 -220 85 -369 247 -471 512 -20
51 -36 105 -35 120 0 18 12 -5 33 -67 18 -52 48 -124 66 -160z m-1408 213 c28
-34 32 -46 10 -32 -16 10 -74 8 -303 -10 -156 -13 -324 -25 -374 -26 -85 -4
-87 -3 -30 5 60 9 177 23 335 41 47 5 128 15 180 23 136 19 164 19 182 -1z
m2693 -149 c224 -95 362 -172 435 -244 51 -50 61 -68 110 -190 65 -165 88
-213 155 -316 48 -74 157 -194 177 -194 4 0 8 -4 8 -10 0 -23 -39 -7 -77 33
-55 57 -109 133 -179 250 -84 141 -93 160 -88 179 3 9 0 19 -6 23 -6 3 -8 10
-5 15 10 15 -33 97 -70 135 -59 58 -246 175 -442 274 -283 144 -290 159 -18
45z m-2046 -98 c55 -29 63 -54 51 -167 -5 -56 -10 -107 -10 -115 0 -8 -10 -14
-22 -14 -41 0 -123 -46 -186 -105 -108 -100 -232 -269 -232 -317 0 -6 23 -47
51 -90 29 -43 50 -81 47 -83 -3 -3 -26 17 -51 44 -53 57 -57 49 -23 -44 13
-36 20 -65 16 -65 -4 0 -29 41 -56 90 -26 50 -51 90 -55 90 -9 0 4 -59 20 -88
6 -12 8 -22 3 -22 -5 0 -17 17 -26 38 -17 36 -16 43 3 140 25 122 18 109 141
292 53 80 131 204 174 276 64 110 94 146 124 153 2 1 16 -6 31 -13z m691 -35
c-11 -26 -48 -61 -65 -61 -4 0 10 19 29 42 20 23 36 46 36 51 0 6 3 7 6 4 4
-4 1 -20 -6 -36z m-1089 -29 c22 -19 21 -19 -82 -31 -57 -6 -162 -16 -234 -21
-139 -11 -165 -13 -399 -35 -169 -17 -192 -18 -183 -9 7 7 90 16 322 34 158
12 505 49 520 55 6 2 -6 4 -25 6 l-35 2 40 7 c22 4 43 8 46 9 4 0 17 -7 30
-17z m648 -3 c84 -27 135 -48 128 -55 -3 -3 -15 -1 -26 5 -28 15 -201 60 -201
52 1 -3 7 -17 15 -31 8 -14 14 -32 15 -40 0 -8 -10 6 -23 30 -33 66 -15 73 92
39z m238 -19 c23 -7 53 -24 65 -38 l23 -24 -40 20 c-22 11 -66 25 -98 32 -31
6 -55 15 -53 19 7 10 53 6 103 -9z m123 -30 c0 -5 -2 -10 -4 -10 -3 0 -8 5
-11 10 -3 6 -1 10 4 10 6 0 11 -4 11 -10z m-423 -157 c-2 -21 -4 -4 -4 37 0
41 2 58 4 38 2 -21 2 -55 0 -75z m-537 -93 c0 -24 -57 -35 -364 -70 -98 -11
-181 -19 -183 -16 -6 6 163 34 254 41 46 4 80 11 77 16 -3 5 -4 9 -2 10 22 5
170 27 191 28 15 0 27 -3 27 -9z m389 -25 c17 -20 31 -41 31 -47 0 -13 -57 38
-71 65 -17 30 7 19 40 -18z m97 -52 l-14 -27 92 -19 c50 -10 177 -47 281 -82
227 -76 278 -87 410 -88 87 0 114 4 212 36 62 19 151 56 199 82 97 53 125 55
37 2 -161 -97 -296 -137 -458 -138 -133 -1 -246 25 -424 95 -100 39 -180 63
-261 78 l-118 22 27 33 c32 40 36 42 17 6z m1884 -78 c36 -20 13 -17 -50 6
-50 18 -51 19 -15 14 22 -4 51 -13 65 -20z m-1755 -105 c191 -182 500 -413
770 -575 351 -212 800 -379 1250 -465 262 -50 606 -72 808 -51 65 7 121 10
124 8 15 -16 -133 -30 -312 -29 -562 1 -1092 128 -1637 391 -336 161 -745 451
-1068 753 -73 69 -86 84 -55 67 22 -12 76 -57 120 -99z m1860 56 c60 -41 86
-72 146 -179 53 -96 132 -200 226 -302 71 -77 73 -78 93 -60 30 27 32 14 3
-20 l-26 -29 -61 65 c-83 89 -130 152 -225 304 -78 124 -175 235 -207 235 -7
0 -16 5 -19 10 -13 20 19 9 70 -24z m-1980 -131 c14 -13 25 -30 25 -37 -1 -8
-5 -7 -14 5 -18 23 -29 22 -271 -18 l-210 -34 -23 23 -23 23 38 0 c21 0 28 -2
16 -4 -24 -5 -32 -23 -10 -23 6 0 48 7 92 15 44 8 86 14 93 15 7 0 10 5 7 11
-5 7 6 8 32 5 28 -5 33 -4 18 3 -14 7 -16 10 -5 11 8 1 53 8 100 15 47 7 91
13 98 14 7 0 24 -10 37 -24z m-930 -175 c10 -11 16 -20 13 -20 -3 0 -13 9 -23
20 -10 11 -16 20 -13 20 3 0 13 -9 23 -20z m1257 -117 c29 -35 30 -42 2 -39
-15 2 -43 -1 -63 -5 -20 -5 -92 -22 -161 -38 -137 -32 -311 -64 -317 -58 -2 3
25 10 59 16 94 17 239 53 235 57 -2 3 -33 -2 -68 -10 -94 -22 -490 -88 -495
-83 -5 5 98 27 328 69 98 17 176 33 174 35 -4 4 -344 -51 -444 -72 -35 -7 -65
-9 -68 -4 -3 5 -2 9 1 9 4 0 109 20 234 45 289 57 486 92 532 94 23 1 41 -5
51 -16z m-847 -153 c-11 -5 -27 -9 -35 -9 -9 0 -8 4 5 9 11 5 27 9 35 9 9 0 8
-4 -5 -9z m1226 -131 c16 -11 29 -24 29 -28 0 -4 -44 -17 -97 -29 -54 -12
-109 -25 -123 -28 -21 -5 -22 -4 -10 6 13 10 12 11 -3 6 -40 -13 -449 -87
-460 -83 -15 5 220 61 323 77 85 13 280 67 294 80 5 5 -13 2 -40 -6 -57 -17
-332 -74 -354 -73 -28 1 74 29 200 55 69 14 134 29 145 34 33 15 65 11 96 -11z
m-223 -94 c-8 -8 -380 -86 -392 -82 -12 4 112 34 274 66 104 20 126 23 118 16z
m-411 -91 c-3 -3 -12 -4 -19 -1 -8 3 -5 6 6 6 11 1 17 -2 13 -5z m1092 -60
c33 -28 43 -52 15 -36 -9 5 -26 7 -38 5 -17 -4 -18 -3 -6 6 13 10 13 12 0 21
-21 15 -57 9 -195 -33 -110 -33 -339 -96 -527 -146 -43 -12 -86 -21 -95 -21
-49 1 35 28 542 174 220 63 260 67 304 30z m470 -152 c13 -10 31 -29 40 -42
15 -24 15 -23 -22 4 -20 16 -47 28 -60 28 -12 0 -168 -45 -347 -100 -179 -55
-334 -102 -345 -105 -11 -3 -60 -17 -110 -31 -177 -50 -105 -23 275 105 212
72 410 139 440 149 60 21 92 19 129 -8z m-139 -71 c-14 -4 -38 -11 -55 -14
l-30 -7 25 15 c14 8 39 14 55 14 29 -1 29 -1 5 -8z m612 -42 c30 -28 31 -29 5
-13 -36 22 -76 15 -197 -34 -52 -22 -158 -62 -235 -91 -77 -28 -192 -71 -255
-95 -112 -43 -180 -63 -180 -53 0 8 208 97 370 157 85 32 211 81 280 109 69
28 137 51 152 51 17 0 40 -12 60 -31z m683 -38 c7 -13 -30 -24 -54 -16 -12 3
-57 -10 -113 -34 -143 -61 -167 -59 -38 3 82 40 127 56 157 56 23 0 44 -4 48
-9z m-315 -17 c25 -14 25 -14 -11 -8 -28 4 -50 -1 -95 -24 -32 -16 -96 -44
-142 -62 -45 -18 -81 -34 -79 -36 2 -2 39 10 82 26 43 17 79 29 81 27 6 -6
-198 -86 -236 -93 -19 -3 -66 -15 -103 -26 -37 -11 -70 -18 -72 -16 -7 7 512
227 535 227 8 0 26 -6 40 -15z m60 -94 c-8 -5 -22 -9 -30 -9 -10 0 -8 3 5 9
27 12 43 12 25 0z m-115 -30 c-38 -11 -71 -17 -73 -15 -2 2 16 9 39 15 24 6
49 13 54 15 6 2 19 3 30 3 11 0 -11 -8 -50 -18z"/>
<path d="M6520 7240 c34 -27 63 -26 31 0 -13 11 -31 20 -40 20 -12 0 -10 -5 9
-20z"/>
<path d="M6046 7059 c-34 -26 -56 -70 -55 -106 1 -22 3 -20 11 14 12 55 50 87
95 80 35 -6 41 1 21 21 -18 18 -42 15 -72 -9z"/>
<path d="M2960 6620 c0 -5 5 -10 11 -10 5 0 7 5 4 10 -3 6 -8 10 -11 10 -2 0
-4 -4 -4 -10z"/>
<path d="M3220 6594 c0 -8 5 -12 10 -9 6 4 8 11 5 16 -9 14 -15 11 -15 -7z"/>
<path d="M3280 6569 c0 -5 5 -7 10 -4 6 3 10 8 10 11 0 2 -4 4 -10 4 -5 0 -10
-5 -10 -11z"/>
<path d="M2386 6365 c4 -8 8 -15 10 -15 2 0 4 7 4 15 0 8 -4 15 -10 15 -5 0
-7 -7 -4 -15z"/>
<path d="M4578 4475 c13 -9 26 -14 29 -11 8 8 3 12 -27 21 l-25 7 23 -17z"/>
<path d="M4640 4473 c0 -13 5 -23 10 -23 13 0 13 11 0 30 -8 12 -10 11 -10 -7z"/>
<path d="M4684 4458 c-6 -9 5 -14 44 -17 22 -2 32 2 32 11 0 10 -11 14 -36 14
-20 -1 -38 -4 -40 -8z"/>
<path d="M6521 5927 c-13 -21 -12 -21 5 -5 10 10 16 20 13 22 -3 3 -11 -5 -18
-17z"/>
<path d="M6285 5050 c-4 -23 -5 -43 -2 -46 2 -3 7 14 11 37 4 23 5 44 2 46 -2
2 -7 -14 -11 -37z"/>
<path d="M6167 4943 c-11 -10 -8 -41 4 -49 16 -9 43 21 36 40 -7 16 -28 21
-40 9z m28 -23 c-3 -5 -10 -10 -16 -10 -5 0 -9 5 -9 10 0 6 7 10 16 10 8 0 12
-4 9 -10z"/>
<path d="M4050 3880 c-8 -5 -12 -12 -9 -15 4 -3 12 1 19 10 14 17 11 19 -10 5z"/>
<path d="M3758 3693 c7 -3 16 -2 19 1 4 3 -2 6 -13 5 -11 0 -14 -3 -6 -6z"/>
<path d="M3658 3683 c12 -2 32 -2 45 0 12 2 2 4 -23 4 -25 0 -35 -2 -22 -4z"/>
<path d="M4228 3373 c7 -3 16 -2 19 1 4 3 -2 6 -13 5 -11 0 -14 -3 -6 -6z"/>
<path d="M4158 3363 c6 -2 18 -2 25 0 6 3 1 5 -13 5 -14 0 -19 -2 -12 -5z"/>
<path d="M4532 3053 c-57 -14 -101 -27 -99 -29 2 -3 33 2 68 11 35 8 78 15 94
15 32 0 63 14 49 23 -5 2 -55 -7 -112 -20z"/>
<path d="M4378 3033 c6 -2 18 -2 25 0 6 3 1 5 -13 5 -14 0 -19 -2 -12 -5z"/>
<path d="M4970 2770 c-12 -8 -12 -10 5 -9 11 0 29 4 40 9 18 8 18 9 -5 9 -14
0 -32 -4 -40 -9z"/>
<path d="M4895 2750 c-25 -11 1 -11 35 0 20 6 21 8 5 8 -11 0 -29 -3 -40 -8z"/>
<path d="M6435 2090 c-13 -6 -15 -9 -5 -9 8 0 22 4 30 9 18 12 2 12 -25 0z"/>
<path d="M5127 9453 c18 -2 50 -2 70 0 21 2 7 4 -32 4 -38 0 -55 -2 -38 -4z"/>
<path d="M5018 9443 c12 -2 32 -2 45 0 12 2 2 4 -23 4 -25 0 -35 -2 -22 -4z"/>
<path d="M4938 9433 c6 -2 18 -2 25 0 6 3 1 5 -13 5 -14 0 -19 -2 -12 -5z"/>
<path d="M4630 9375 c-25 -7 -38 -13 -30 -14 8 0 38 6 65 13 28 8 41 14 30 14
-11 0 -40 -6 -65 -13z"/>
<path d="M4528 9343 c7 -3 16 -2 19 1 4 3 -2 6 -13 5 -11 0 -14 -3 -6 -6z"/>
<path d="M4390 9305 c-36 -13 -60 -24 -54 -24 5 -1 41 10 80 23 38 14 62 24
54 24 -8 0 -44 -10 -80 -23z"/>
<path d="M4140 9209 c-63 -28 -119 -56 -125 -61 -5 -5 17 2 50 17 33 15 91 40
129 56 39 16 72 32 75 34 13 14 -25 0 -129 -46z"/>
<path d="M3948 9119 c-21 -11 -38 -22 -38 -24 0 -5 79 32 89 41 12 11 -18 1
-51 -17z"/>
<path d="M5183 9043 c-92 -111 -289 -300 -365 -352 -114 -76 -263 -152 -432
-220 -194 -78 -219 -101 -67 -60 144 38 219 67 353 134 192 96 328 202 451
352 52 65 127 179 127 196 0 19 -23 2 -67 -50z"/>
<path d="M3729 8994 c-125 -77 -239 -153 -239 -161 0 -2 3 -2 8 0 7 5 317 203
349 224 10 6 16 12 12 12 -3 1 -61 -33 -130 -75z"/>
<path d="M3449 8803 c-13 -16 -12 -17 4 -4 16 13 21 21 13 21 -2 0 -10 -8 -17
-17z"/>
<path d="M3404 8768 l-19 -23 23 19 c21 18 27 26 19 26 -2 0 -12 -10 -23 -22z"/>
<path d="M3293 8681 c-44 -39 -85 -75 -89 -82 -4 -7 34 23 84 66 82 69 99 85
90 85 -2 0 -40 -31 -85 -69z"/>
<path d="M7755 7003 c-42 -55 -105 -161 -105 -179 0 -5 20 27 45 70 24 43 60
98 80 122 20 24 34 44 31 44 -3 0 -26 -26 -51 -57z"/>
<path d="M7980 6964 c-107 -60 -179 -113 -254 -187 -75 -74 -60 -66 38 22 69
61 156 122 241 168 33 18 56 33 50 33 -5 0 -39 -16 -75 -36z"/>
<path d="M7808 6613 c7 -3 16 -2 19 1 4 3 -2 6 -13 5 -11 0 -14 -3 -6 -6z"/>
<path d="M7840 6515 c109 -16 127 -17 85 -4 -16 5 -64 11 -105 14 l-75 4 95
-14z"/>
<path d="M7975 6490 c11 -5 27 -9 35 -9 9 0 8 4 -5 9 -11 5 -27 9 -35 9 -9 0
-8 -4 5 -9z"/>
<path d="M8765 5396 c-176 -140 -279 -282 -321 -441 -18 -65 -18 -147 0 -189
35 -84 133 -153 232 -163 49 -5 54 -4 54 14 0 15 -11 23 -42 33 -175 52 -226
137 -183 303 32 123 111 245 244 376 52 52 97 103 98 113 2 10 2 18 0 18 -1 0
-38 -29 -82 -64z"/>
<path d="M7925 5421 c28 -10 58 -22 68 -26 13 -5 17 -2 17 13 0 12 -4 24 -10
27 -5 3 -10 2 -10 -4 0 -7 -8 -7 -26 -1 -14 6 -40 10 -57 10 -30 -1 -28 -2 18
-19z"/>
<path d="M7669 5378 c0 -2 -2 -14 -3 -27 -4 -32 -46 -68 -96 -81 -23 -6 -38
-15 -35 -20 10 -17 109 19 138 50 29 33 37 80 12 80 -8 0 -15 -1 -16 -2z"/>
<path d="M7825 5300 c-4 -6 8 -10 30 -10 22 0 34 4 30 10 -3 6 -17 10 -30 10
-13 0 -27 -4 -30 -10z"/>
<path d="M1510 5315 c263 -150 416 -385 516 -788 35 -141 96 -339 114 -367 21
-34 17 2 -10 80 -17 46 -51 158 -76 249 -84 305 -128 413 -224 557 -95 139
-260 279 -355 299 -21 5 -11 -4 35 -30z"/>
<path d="M1135 5168 c-41 -15 -115 -70 -141 -105 -54 -72 -68 -115 -68 -203
-1 -101 20 -177 67 -246 31 -45 115 -114 140 -114 5 0 -17 18 -50 39 -54 34
-66 48 -97 113 -42 86 -59 176 -46 252 30 184 198 293 372 242 47 -13 65 -26
107 -73 83 -92 113 -200 91 -318 -17 -88 -58 -149 -130 -189 -46 -25 -65 -30
-125 -31 -94 0 -151 23 -208 84 -60 64 -82 135 -74 237 6 82 13 98 67 156 21
23 36 46 33 52 -3 5 -2 6 4 3 6 -4 27 3 49 13 40 21 104 27 104 10 0 -5 -4
-10 -10 -10 -16 0 -12 -17 6 -24 10 -4 21 0 28 9 10 13 17 13 64 -4 30 -11 61
-26 69 -33 29 -23 48 -82 48 -143 -1 -77 -57 -198 -108 -232 -36 -25 -105 -31
-153 -13 -43 17 -40 3 5 -20 24 -12 39 -25 35 -32 -17 -27 52 -36 101 -12 27
13 28 14 5 10 -14 -2 -34 -1 -45 3 -17 7 -16 9 10 15 58 15 114 59 140 110 14
28 25 61 25 75 0 15 5 33 11 41 8 11 9 -1 5 -46 -3 -33 -8 -69 -11 -80 -6 -17
-5 -17 4 -2 19 28 25 131 11 189 -17 74 -42 120 -85 157 -53 47 -101 64 -180
66 -88 1 -154 -29 -194 -89 -35 -51 -41 -67 -51 -135 -21 -147 43 -293 155
-353 54 -29 203 -31 253 -4 50 27 111 86 132 127 85 166 4 429 -154 501 -46
21 -161 25 -211 7z m322 -310 c-3 -8 -6 -5 -6 6 -1 11 2 17 5 13 3 -3 4 -12 1
-19z"/>
<path d="M1190 5018 c-50 -28 -88 -66 -117 -116 -21 -36 -25 -52 -20 -95 4
-48 9 -56 62 -104 32 -29 65 -53 73 -53 8 0 0 10 -18 23 -18 12 -36 29 -40 37
-4 8 -13 26 -20 39 -7 14 -15 52 -18 86 -4 54 -2 64 21 91 14 16 46 41 72 54
77 41 85 47 78 53 -11 12 -37 6 -73 -15z"/>
<path d="M1318 4960 c-2 -7 -19 -15 -38 -19 -32 -6 -35 -10 -38 -47 -4 -52 14
-102 30 -86 16 16 33 15 20 -1 -12 -13 -12 -57 -1 -57 23 0 70 89 63 121 -5
22 -4 22 6 5 7 -10 10 -33 7 -52 -4 -20 -2 -32 4 -29 13 9 11 81 -4 118 -16
38 -43 64 -49 47z"/>
<path d="M987 4863 c-4 -27 -3 -64 2 -83 7 -30 9 -22 12 48 4 89 -5 111 -14
35z"/>
<path d="M1121 4896 c-47 -56 9 -188 66 -157 46 24 56 121 16 145 -30 18 -72
24 -82 12z m54 -96 c-7 -23 4 -26 24 -7 11 10 13 9 9 -2 -2 -8 -12 -19 -22
-25 -13 -9 -20 -7 -32 8 -18 26 -18 34 4 39 9 3 18 5 20 6 2 0 0 -8 -3 -19z"/>
<path d="M1192 4725 l-23 -12 30 -6 c34 -7 61 0 61 15 0 5 -4 6 -10 3 -5 -3
-10 -1 -10 4 0 14 -19 12 -48 -4z"/>
<path d="M1188 4483 c6 -2 18 -2 25 0 6 3 1 5 -13 5 -14 0 -19 -2 -12 -5z"/>
<path d="M1278 4483 c7 -3 16 -2 19 1 4 3 -2 6 -13 5 -11 0 -14 -3 -6 -6z"/>
<path d="M1580 4487 c0 -5 7 -24 16 -43 9 -19 14 -37 12 -40 -3 -2 -11 9 -18
26 -7 16 -16 30 -21 30 -12 0 -11 -7 2 -32 6 -11 8 -22 5 -25 -3 -3 -13 11
-22 31 -29 60 -41 44 -17 -21 12 -30 -8 -10 -24 25 -15 33 -17 35 -20 14 -3
-13 1 -30 8 -38 6 -8 9 -17 6 -21 -4 -3 -12 6 -18 21 -15 32 -33 35 -23 4 6
-20 5 -21 -10 -9 -10 8 -16 9 -16 3 0 -25 91 -163 107 -163 4 0 13 -10 20 -22
12 -21 12 -21 13 -2 1 15 6 10 21 -17 11 -21 24 -38 29 -38 6 0 10 -5 10 -11
0 -5 -5 -7 -11 -3 -8 5 -8 1 0 -14 6 -12 16 -24 22 -28 7 -4 6 3 -2 17 -11 21
-11 23 3 11 9 -7 21 -26 28 -42 12 -30 37 -44 26 -15 -3 8 -1 15 5 15 7 0 9
14 5 38 l-6 37 18 -42 c31 -75 40 -67 17 17 -4 15 2 10 15 -15 30 -54 33 -56
26 -15 l-7 35 16 -27 c21 -37 29 -35 21 5 -5 27 0 22 30 -30 21 -34 41 -60 45
-57 4 2 1 26 -7 52 -8 26 -21 73 -29 106 -7 32 -17 61 -20 65 -8 7 0 -46 10
-71 4 -10 3 -18 -3 -18 -5 0 -15 27 -22 60 -7 33 -17 60 -22 60 -8 0 -5 -18
10 -59 3 -9 1 -12 -6 -7 -7 4 -12 16 -12 26 0 10 -4 22 -10 25 -13 8 -13 -16
0 -49 13 -35 5 -33 -13 3 -9 18 -11 34 -6 44 6 9 3 28 -6 49 l-16 33 6 -45 c4
-40 3 -42 -6 -17 -6 15 -15 27 -20 27 -4 0 -5 7 -2 17 4 10 2 14 -5 9 -6 -3
-13 3 -17 16 -12 43 -28 66 -40 61 -8 -3 -15 4 -17 18 -2 12 -8 24 -15 26 -7
3 -9 -3 -6 -16 8 -30 -4 -26 -21 7 -8 15 -15 23 -16 19z m54 -73 c3 -8 2 -12
-4 -9 -6 3 -10 10 -10 16 0 14 7 11 14 -7z m40 -10 c3 -8 2 -12 -4 -9 -6 3
-10 10 -10 16 0 14 7 11 14 -7z m-184 -34 c6 -11 8 -20 6 -20 -3 0 -10 9 -16
20 -6 11 -8 20 -6 20 3 0 10 -9 16 -20z m119 -19 c-2 -6 -10 2 -17 17 -11 25
-11 25 4 10 9 -9 15 -21 13 -27z m29 -56 c-3 -3 -9 2 -12 12 -6 14 -5 15 5 6
7 -7 10 -15 7 -18z m89 -47 c-3 -8 -6 -5 -6 6 -1 11 2 17 5 13 3 -3 4 -12 1
-19z m-38 -68 c6 -19 7 -30 2 -25 -5 6 -13 24 -17 40 -9 39 0 30 15 -15z m48
8 c-3 -8 -6 -5 -6 6 -1 11 2 17 5 13 3 -3 4 -12 1 -19z m42 -23 c0 -5 -4 -3
-9 5 -5 8 -9 22 -9 30 0 16 17 -16 18 -35z m-115 -1 c3 -8 2 -12 -4 -9 -6 3
-10 10 -10 16 0 14 7 11 14 -7z m194 -26 c6 -18 13 -42 16 -53 4 -11 -3 -2
-14 20 -19 38 -25 65 -15 65 2 0 8 -15 13 -32z m-161 -20 c-3 -8 -6 -5 -6 6
-1 11 2 17 5 13 3 -3 4 -12 1 -19z"/>
<path d="M1901 4165 c1 -19 18 -51 18 -35 0 8 -4 22 -9 30 -5 8 -9 11 -9 5z"/>
<path d="M1730 3835 c0 -5 5 -17 10 -25 5 -8 10 -10 10 -5 0 6 -5 17 -10 25
-5 8 -10 11 -10 5z"/>
<path d="M2570 2516 c0 -2 8 -10 18 -17 15 -13 16 -12 3 4 -13 16 -21 21 -21
13z"/>
<path d="M2630 2446 c0 -2 8 -10 18 -17 15 -13 16 -12 3 4 -13 16 -21 21 -21
13z"/>
<path d="M6858 1013 c7 -3 16 -2 19 1 4 3 -2 6 -13 5 -11 0 -14 -3 -6 -6z"/>
<path d="M6314 982 c5 -8 46 -12 124 -12 79 0 112 -3 102 -10 -11 -7 3 -10 48
-10 35 0 62 4 62 10 0 6 -8 10 -17 11 -10 0 -31 2 -48 3 -162 15 -277 18 -271
8z"/>
<path d="M6748 983 c29 -2 74 -2 100 0 26 2 2 3 -53 3 -55 0 -76 -1 -47 -3z"/>
<path d="M6908 983 c6 -2 18 -2 25 0 6 3 1 5 -13 5 -14 0 -19 -2 -12 -5z"/>
<path d="M6960 980 c0 -5 5 -10 11 -10 5 0 7 5 4 10 -3 6 -8 10 -11 10 -2 0
-4 -4 -4 -10z"/>
<path d="M6660 960 c0 -6 68 -9 188 -9 132 1 171 4 132 9 -84 12 -320 12 -320
0z"/>
<path d="M6405 929 c-38 -4 86 -6 277 -5 190 0 341 4 335 9 -14 8 -510 6 -612
-4z"/>
<path d="M6265 905 c101 -15 681 -19 750 -5 24 5 -102 8 -310 8 -192 0 -390 3
-440 6 l-90 5 90 -14z"/>
<path d="M6168 883 c23 -2 59 -2 80 0 20 2 1 4 -43 4 -44 0 -61 -2 -37 -4z"/>
<path d="M6235 869 c-80 -7 251 -14 555 -12 130 1 247 6 260 11 27 10 -707 11
-815 1z"/>
<path d="M7008 845 c-2 -3 -204 -6 -449 -7 -244 -1 -430 -5 -414 -9 17 -4 201
-7 410 -8 361 -1 515 4 515 18 0 7 -56 12 -62 6z"/>
<path d="M6960 810 c-91 -3 -304 -5 -475 -5 -371 1 -301 -10 125 -19 304 -7
502 2 523 23 6 6 7 10 2 9 -6 -1 -84 -4 -175 -8z"/>
<path d="M6850 769 c-360 -12 -369 -15 -60 -17 282 -2 360 2 360 19 0 5 -15 8
-32 7 -18 0 -139 -5 -268 -9z"/>
<path d="M7148 744 c-3 -3 -122 -5 -264 -5 -172 0 -254 -3 -247 -10 12 -12
395 -17 476 -6 31 5 57 13 57 18 0 10 -13 12 -22 3z"/>
<path d="M7083 703 c9 -2 23 -2 30 0 6 3 -1 5 -18 5 -16 0 -22 -2 -12 -5z"/>
<path d="M7008 693 c12 -2 30 -2 40 0 9 3 -1 5 -23 4 -22 0 -30 -2 -17 -4z"/>
<path d="M3530 1330 c8 -5 20 -10 25 -10 6 0 3 5 -5 10 -8 5 -19 10 -25 10 -5
0 -3 -5 5 -10z"/>
<path d="M3680 1286 c0 -2 7 -7 16 -10 8 -3 12 -2 9 4 -6 10 -25 14 -25 6z"/>
<path d="M3782 1235 c0 -16 2 -22 5 -12 2 9 2 23 0 30 -3 6 -5 -1 -5 -18z"/>
<path d="M7547 10053 c-4 -3 -7 -12 -7 -20 0 -15 26 -18 34 -4 7 11 -18 33
-27 24z"/>
<path d="M7436 10025 c4 -8 10 -12 15 -9 11 6 2 24 -11 24 -5 0 -7 -7 -4 -15z"/>
<path d="M7380 10021 c0 -6 5 -13 10 -16 6 -3 10 1 10 9 0 9 -4 16 -10 16 -5
0 -10 -4 -10 -9z"/>
<path d="M7537 9957 c-9 -25 18 -41 34 -20 8 10 9 14 2 10 -6 -4 -16 0 -21 9
-8 14 -10 14 -15 1z"/>
<path d="M7770 9958 c0 -9 4 -19 10 -23 5 -3 7 -12 3 -20 -3 -9 1 -15 10 -15
21 0 32 19 19 32 -6 6 -8 17 -5 24 3 8 0 14 -6 14 -6 0 -11 -6 -11 -12 0 -9
-4 -8 -10 2 -8 13 -10 13 -10 -2z"/>
<path d="M7920 9923 c0 -5 11 -8 24 -8 13 0 22 3 19 8 -2 4 -13 7 -24 7 -10 0
-19 -3 -19 -7z"/>
<path d="M7926 9879 c6 -11 31 -12 37 -1 3 4 -6 8 -19 8 -13 1 -21 -2 -18 -7z"/>
<path d="M7886 9813 c-12 -12 -6 -51 10 -57 26 -10 29 -7 9 8 -16 11 -17 17
-7 29 13 15 1 33 -12 20z"/>
<path d="M8024 9796 c-3 -8 -1 -23 6 -33 10 -16 10 -15 4 5 -5 22 -4 23 17 17
21 -7 22 -6 10 9 -17 20 -30 21 -37 2z"/>
<path d="M8060 9749 c0 -5 5 -7 10 -4 6 3 10 8 10 11 0 2 -4 4 -10 4 -5 0 -10
-5 -10 -11z"/>
<path d="M10217 9422 c-37 -40 -8 -102 48 -102 19 0 37 5 40 10 3 6 14 10 24
10 22 0 51 30 51 53 0 44 -129 67 -163 29z m63 -13 c-8 -15 -8 -24 0 -34 7 -8
9 -19 5 -25 -12 -19 -44 -10 -62 16 -16 26 -16 27 6 45 13 11 32 19 42 19 17
0 18 -3 9 -21z m68 -12 c2 -15 1 -27 -2 -27 -13 0 -46 42 -40 51 12 19 39 4
42 -24z"/>
<path d="M10320 9271 c-16 -31 -12 -57 16 -90 44 -53 114 -33 114 33 0 61
-103 106 -130 57z m87 -23 c28 -27 30 -64 3 -73 -27 -8 -59 11 -66 40 -14 55
21 73 63 33z"/>
<path d="M11126 9098 c4 -13 20 -57 35 -98 16 -41 29 -81 30 -90 0 -10 2 -11
6 -3 4 12 -65 213 -74 213 -2 0 -1 -10 3 -22z"/>
<path d="M10484 9020 c5 -100 26 -220 38 -220 11 0 11 8 -17 165 l-25 140 4
-85z"/>
<path d="M9453 9033 c5 -26 12 -128 30 -428 2 -27 4 13 5 90 1 136 -18 349
-33 363 -4 4 -5 -7 -2 -25z"/>
<path d="M9402 8970 c0 -19 2 -27 5 -17 2 9 2 25 0 35 -3 9 -5 1 -5 -18z"/>
<path d="M11101 8989 c-1 -8 6 -36 15 -62 8 -25 31 -119 49 -209 21 -100 34
-148 34 -123 1 46 -20 171 -43 262 -18 70 -54 156 -55 132z"/>
<path d="M9433 8770 c0 -190 0 -192 8 -80 5 64 5 151 0 195 -7 66 -8 46 -8
-115z"/>
<path d="M9413 8845 c0 -33 2 -45 4 -27 2 18 2 45 0 60 -2 15 -4 0 -4 -33z"/>
<path d="M10861 8825 c0 -5 6 -37 14 -70 8 -33 15 -69 15 -80 0 -17 -2 -18
-11 -5 -8 12 -9 8 -5 -15 2 -17 8 -93 12 -168 7 -139 15 -177 15 -71 0 32 -2
97 -5 144 l-5 85 14 -85 c8 -47 16 -137 16 -200 2 -94 3 -106 10 -65 13 86 10
170 -12 306 -17 108 -57 260 -58 224z"/>
<path d="M10547 8793 c-4 -3 -7 -11 -7 -17 0 -6 5 -5 12 2 6 6 9 14 7 17 -3 3
-9 2 -12 -2z"/>
<path d="M10903 8769 c3 -9 15 -46 26 -83 20 -65 33 -172 46 -373 4 -57 11
-103 16 -103 5 0 9 -18 9 -40 0 -22 5 -40 10 -40 12 0 12 331 0 405 -5 30 -6
-23 -3 -135 3 -132 1 -181 -6 -170 -6 8 -11 56 -11 105 -1 165 -38 367 -80
432 -9 15 -11 15 -7 2z"/>
<path d="M11157 8563 c3 -45 9 -149 13 -230 8 -146 8 -146 5 47 -2 107 -9 211
-14 230 -8 27 -9 16 -4 -47z"/>
<path d="M11101 8570 c0 -8 4 -35 10 -60 6 -25 11 -126 12 -225 l0 -180 9 120
c10 121 -1 286 -21 336 -5 13 -10 17 -10 9z"/>
<path d="M11044 8295 c0 -139 3 -230 7 -205 9 57 9 328 0 400 -4 31 -7 -52 -7
-195z"/>
<path d="M9802 8454 c10 -10 20 -16 22 -13 3 3 -5 11 -17 18 -21 13 -21 12 -5
-5z"/>
<path d="M9877 8429 c7 -7 15 -10 18 -7 3 3 -2 9 -12 12 -14 6 -15 5 -6 -5z"/>
<path d="M11094 8230 c0 -52 1 -74 3 -47 2 26 2 68 0 95 -2 26 -3 4 -3 -48z"/>
<path d="M11083 8070 c0 -36 2 -50 4 -32 2 17 2 47 0 65 -2 17 -4 3 -4 -33z"/>
<path d="M155 7663 c-175 -21 -150 -30 83 -31 432 -1 787 -72 1136 -229 129
-57 155 -64 116 -31 -35 29 -207 110 -315 146 -311 106 -784 174 -1020 145z"/>
<path d="M80 7061 c-30 -4 27 -9 165 -13 369 -11 623 -73 913 -223 67 -35 122
-62 122 -60 0 10 -177 114 -264 156 -197 94 -416 138 -706 144 -102 2 -205 0
-230 -4z"/>
<path d="M985 6966 c73 -36 185 -84 185 -80 0 7 -160 81 -190 88 -21 5 -21 4
5 -8z"/>
<path d="M10600 6404 c-85 -11 -140 -26 -140 -39 0 -10 39 -13 193 -12 167 1
203 -1 279 -21 84 -21 165 -56 236 -103 31 -20 32 -20 32 -2 0 39 -145 122
-268 154 -76 19 -259 32 -332 23z"/>
<path d="M10836 4824 c-50 -19 -95 -38 -100 -43 -6 -4 -41 -16 -79 -26 -142
-38 -32 -23 163 21 67 16 156 51 149 59 -3 2 -51 -12 -108 -31 -56 -20 -105
-33 -108 -31 -3 3 14 11 37 17 75 20 180 71 143 70 -5 -1 -48 -16 -97 -36z"/>
<path d="M10984 4820 c-70 -33 -221 -83 -314 -105 l-65 -15 70 5 c71 5 167 29
239 60 21 9 40 14 43 12 10 -11 -160 -67 -281 -93 -136 -29 -156 -45 -30 -24
41 7 77 11 80 8 3 -3 -30 -15 -73 -26 -64 -16 -71 -20 -42 -21 20 -1 76 10
123 24 108 31 119 31 36 -1 -36 -14 -128 -37 -205 -51 -140 -25 -175 -36 -175
-53 0 -17 192 -11 312 9 165 29 280 65 393 125 85 45 100 57 103 79 l3 27 -65
-36 c-77 -42 -114 -40 -42 2 151 90 118 90 -60 0 -82 -42 -160 -78 -174 -81
l-25 -5 25 12 c14 7 66 31 115 54 85 40 140 73 122 74 -4 0 -34 -13 -67 -30
-74 -37 -187 -80 -209 -79 -9 0 4 7 29 15 66 20 234 107 238 122 3 11 -3 10
-27 -2 -34 -18 -39 -16 -15 8 21 22 9 19 -62 -14z"/>
<path d="M200 3993 c0 -13 33 -105 55 -158 35 -79 25 -14 -10 72 -38 90 -45
104 -45 86z"/>
<path d="M455 3770 c15 -53 187 -407 246 -508 158 -272 310 -473 502 -665 111
-111 241 -210 293 -223 51 -13 44 5 -22 55 -367 278 -636 618 -907 1151 -98
192 -127 241 -112 190z"/>
<path d="M10366 3420 c-157 -18 -346 -65 -453 -111 -76 -34 -34 -33 78 0 346
104 785 118 1142 37 31 -7 57 -10 57 -5 0 12 -91 37 -220 60 -131 24 -468 34
-604 19z"/>
<path d="M820 3264 c0 -5 7 -18 15 -28 8 -11 15 -16 15 -10 0 5 -7 18 -15 28
-8 11 -15 16 -15 10z"/>
<path d="M851 3189 c9 -13 35 -57 58 -96 24 -40 47 -73 52 -73 11 0 2 19 -45
95 -17 28 -36 59 -42 70 -6 10 -17 21 -24 23 -12 4 -11 0 1 -19z"/>
<path d="M975 3000 c3 -5 8 -10 11 -10 2 0 4 5 4 10 0 6 -5 10 -11 10 -5 0 -7
-4 -4 -10z"/>
<path d="M10365 2830 c-3 -5 -14 -10 -24 -10 -26 0 -173 -74 -195 -99 -11 -11
-14 -21 -8 -21 7 0 12 5 12 10 0 12 148 85 191 95 25 6 27 4 31 -34 l4 -41
-93 -46 c-51 -25 -91 -50 -88 -54 3 -5 22 0 43 11 20 10 63 24 95 31 l57 12 0
63 c0 49 3 63 15 63 18 0 21 -54 5 -96 -8 -20 -8 -29 1 -34 8 -6 8 -9 0 -14
-29 -18 5 -41 41 -27 20 7 20 8 3 15 -11 4 -22 2 -27 -6 -6 -11 -8 -11 -8 0 0
40 88 2 125 -54 20 -31 20 -31 -15 -37 -16 -4 -30 -10 -30 -15 0 -5 12 -7 28
-4 l27 5 -25 -22 c-22 -20 -22 -22 -5 -17 48 12 69 16 57 10 -6 -3 -10 -10 -6
-15 3 -5 -1 -21 -10 -36 -25 -48 -46 -100 -46 -115 0 -15 -37 -54 -49 -51 -3
0 -5 -4 -3 -9 2 -6 -4 -8 -12 -5 -9 4 -18 2 -21 -3 -18 -29 -114 7 -157 58
-66 79 -58 171 20 207 52 24 55 39 5 21 -92 -31 -110 -165 -37 -263 47 -62
206 -87 295 -46 106 47 159 123 159 225 0 77 -23 131 -74 176 -36 32 -42 33
-107 30 -37 -1 -71 1 -74 4 -7 7 71 21 96 18 29 -4 39 0 39 19 0 23 -34 46
-113 75 -84 31 -115 38 -122 26z m129 -50 c30 -12 60 -27 66 -35 11 -13 3 -15
-59 -15 l-71 0 0 35 c0 19 2 35 5 35 2 0 29 -9 59 -20z m106 -120 c12 -7 8
-10 -14 -10 -16 0 -26 -3 -22 -7 12 -12 65 -10 58 2 -3 6 7 -1 22 -15 25 -23
26 -25 10 -37 -10 -7 -24 -13 -31 -13 -7 0 -13 -4 -13 -10 0 -5 5 -10 10 -10
6 0 10 -4 10 -10 0 -21 -16 -8 -43 35 -16 25 -40 54 -54 65 l-26 20 39 0 c22
0 46 -5 54 -10z m44 -142 c-3 -4 -9 -8 -15 -8 -5 0 -9 4 -9 8 0 5 7 9 15 9 8
0 12 -4 9 -9z m2 -48 c0 -11 -4 -20 -8 -20 -4 0 -8 9 -8 20 0 11 4 20 8 20 4
0 8 -9 8 -20z m-46 -9 c0 -5 -7 -12 -16 -15 -14 -5 -15 -4 -4 9 14 17 20 19
20 6z m45 -31 c3 -5 1 -10 -4 -10 -6 0 -11 5 -11 10 0 6 2 10 4 10 3 0 8 -4
11 -10z m-61 -24 c-10 -8 -21 -12 -24 -9 -3 2 4 11 14 19 11 7 22 12 25 9 2
-3 -4 -12 -15 -19z m-24 -30 c0 -2 -7 -7 -16 -10 -8 -3 -12 -2 -9 4 6 10 25
14 25 6z"/>
<path d="M10495 2750 c3 -5 8 -10 11 -10 2 0 4 5 4 10 0 6 -5 10 -11 10 -5 0
-7 -4 -4 -10z"/>
<path d="M10605 2600 c-7 -12 2 -12 30 0 19 8 19 9 -2 9 -12 1 -25 -3 -28 -9z"/>
<path d="M10317 2639 c-32 -10 -71 -28 -87 -39 -21 -15 -30 -17 -33 -8 -8 23
-19 -121 -13 -165 6 -39 5 -43 -16 -44 -12 -1 -33 7 -45 19 -19 18 -23 19 -23
5 0 -9 5 -19 10 -22 12 -8 4 -25 -12 -25 -7 0 -9 22 -4 69 8 90 -9 145 -47
149 -19 2 -27 -1 -27 -12 0 -23 43 -133 47 -120 2 6 -5 35 -17 63 -24 62 -24
61 -5 61 28 0 37 -49 29 -150 -5 -52 -10 -84 -12 -70 -7 52 -33 130 -43 130
-11 0 -8 -20 7 -67 3 -10 -3 -4 -14 13 -26 40 -42 50 -53 33 -17 -28 -9 -68
21 -101 24 -25 30 -29 30 -14 0 10 -9 29 -20 43 -20 26 -28 59 -11 49 15 -10
71 -124 71 -145 0 -12 -7 -29 -17 -40 -16 -19 -16 -19 -34 2 -16 19 -20 20
-29 7 -7 -11 -12 -12 -18 -3 -4 6 -19 14 -33 18 -21 5 -27 2 -31 -13 -5 -17 4
-20 74 -32 43 -7 80 -11 82 -9 1 2 10 24 19 49 24 63 30 70 63 76 16 3 37 7
47 10 12 4 25 -4 39 -21 11 -14 23 -24 26 -21 2 3 0 11 -5 18 -6 7 -15 35 -22
62 -10 40 -9 56 5 98 9 27 29 63 45 79 16 16 22 29 15 29 -19 0 -46 -33 -62
-77 -10 -28 -13 -32 -14 -15 0 33 25 76 52 89 42 20 103 42 123 45 11 2 16 6
10 9 -5 3 -36 -2 -68 -12z"/>
<path d="M10106 2631 c-3 -5 1 -11 9 -15 8 -3 15 -1 15 4 0 13 -18 22 -24 11z"/>
<path d="M9905 2619 c-11 -16 3 -57 23 -68 12 -6 23 -5 37 5 15 11 17 19 9 41
-5 15 -18 29 -28 31 -17 4 -17 3 0 -23 11 -17 14 -29 7 -36 -15 -15 -46 19
-40 42 6 21 2 25 -8 8z"/>
<path d="M10394 2580 c37 -11 75 -47 91 -84 24 -56 -12 -131 -82 -171 -26 -15
-27 -15 -3 -9 75 19 122 103 99 175 -14 45 -75 99 -108 98 -26 -1 -26 -1 3 -9z"/>
<path d="M10114 2506 c3 -27 6 -57 6 -67 0 -11 5 -19 11 -19 14 0 4 95 -12
119 -7 11 -9 2 -5 -33z"/>
<path d="M10383 2543 c-13 -2 -23 -11 -23 -19 0 -19 29 -18 37 1 5 14 8 14 24
-1 11 -9 19 -13 19 -8 0 11 -21 35 -29 33 -4 -1 -16 -4 -28 -6z"/>
<path d="M10460 2482 c6 -13 14 -21 18 -18 3 4 -2 14 -12 24 -18 16 -18 16 -6
-6z"/>
<path d="M10347 2363 c-16 -15 -5 -23 31 -22 23 1 28 3 15 6 -13 2 -23 9 -23
14 0 10 -14 12 -23 2z"/>
<path d="M9056 2320 c6 -6 71 -22 145 -35 704 -125 859 -156 1228 -241 195
-45 475 -117 666 -172 58 -17 102 -25 104 -19 2 5 -2 13 -9 17 -29 18 -300
103 -475 149 -601 158 -1719 361 -1659 301z"/>
<path d="M9664 2289 c-9 -16 -5 -17 91 -29 48 -6 93 -14 98 -17 9 -6 27 14 27
31 0 4 -13 6 -29 4 -17 -2 -28 -1 -25 4 3 4 -19 9 -48 9 -29 1 -65 3 -80 5
-15 1 -30 -2 -34 -7z"/>
<path d="M10070 2241 c-9 -18 -7 -21 16 -27 28 -7 55 4 62 24 6 19 -29 14 -45
-5 -14 -17 -14 -17 -9 -1 8 25 -11 32 -24 9z"/>
<path d="M10150 2225 c-7 -9 -10 -19 -6 -22 4 -4 11 -1 16 7 8 13 10 12 10 -2
0 -12 8 -18 23 -18 16 0 18 3 8 9 -9 6 -10 11 -2 15 19 12 12 26 -13 26 -13 0
-29 -7 -36 -15z"/>
<path d="M10247 2223 c-4 -3 -7 -15 -7 -25 0 -28 25 -22 28 7 2 24 -8 32 -21
18z"/>
<path d="M10291 2221 c-23 -14 -8 -45 24 -51 23 -5 33 -1 43 15 13 20 13 20 9
-2 -3 -13 -4 -23 -3 -23 1 0 45 -9 96 -20 116 -25 112 -25 104 5 -3 14 -2 25
4 25 10 0 26 -29 23 -43 -1 -5 6 -7 16 -5 12 2 17 11 15 23 -5 24 -1 21 -35
29 -23 6 -29 2 -39 -21 l-12 -28 -4 27 c-2 14 -10 29 -18 32 -11 4 -13 -1 -8
-22 l6 -27 -14 25 c-15 28 -66 38 -75 14 -8 -21 -22 -17 -16 5 7 27 -55 41
-72 17 -16 -21 -24 -20 -18 3 6 22 -7 33 -26 22z"/>
<path d="M1648 1693 c12 -2 32 -2 45 0 12 2 2 4 -23 4 -25 0 -35 -2 -22 -4z"/>
<path d="M2158 1683 c18 -2 45 -2 60 0 15 2 0 4 -33 4 -33 0 -45 -2 -27 -4z"/>
<path d="M1488 1673 c7 -3 16 -2 19 1 4 3 -2 6 -13 5 -11 0 -14 -3 -6 -6z"/>
<path d="M846 1535 c4 -8 8 -15 10 -15 2 0 4 7 4 15 0 8 -4 15 -10 15 -5 0 -7
-7 -4 -15z"/>
<path d="M728 1383 c7 -3 16 -2 19 1 4 3 -2 6 -13 5 -11 0 -14 -3 -6 -6z"/>
<path d="M788 1383 c18 -2 45 -2 60 0 15 2 0 4 -33 4 -33 0 -45 -2 -27 -4z"/>
<path d="M635 1310 c33 -5 119 -16 190 -24 72 -8 175 -22 231 -30 118 -19 596
-67 602 -62 5 6 -37 13 -151 27 -61 8 -93 16 -85 21 8 5 -12 7 -47 4 -45 -4
-52 -3 -30 4 l30 9 -35 -2 c-19 0 -40 2 -47 6 -6 4 -48 6 -94 5 -46 -1 -165 8
-264 20 -194 23 -415 39 -300 22z m642 -56 c-3 -3 -12 -4 -19 -1 -8 3 -5 6 6
6 11 1 17 -2 13 -5z"/>
<path d="M658 1263 c6 -2 18 -2 25 0 6 3 1 5 -13 5 -14 0 -19 -2 -12 -5z"/>
<path d="M750 1260 c30 -4 96 -9 145 -10 76 -2 172 -16 125 -19 -21 -1 -345
17 -405 23 -44 5 -45 4 -15 -4 41 -10 293 -37 430 -45 151 -9 411 -34 590 -56
267 -33 240 -30 205 -19 -69 21 -602 89 -720 91 -61 2 -65 3 -30 9 l40 7 -35
2 c-19 0 -51 5 -70 10 -19 5 -98 11 -175 14 -91 3 -121 2 -85 -3z"/>
<path d="M690 1199 c69 -11 148 -21 176 -22 29 -1 50 -5 48 -9 -3 -4 11 -4 30
-1 19 3 78 0 133 -6 54 -5 118 -11 143 -12 25 -2 49 -5 54 -8 6 -2 50 -6 98
-7 83 -3 439 -40 466 -49 6 -2 12 0 12 4 0 10 -22 14 -205 36 -71 8 -159 20
-195 25 -56 9 -265 30 -310 31 -8 1 -91 7 -185 14 -93 8 -219 16 -280 19
l-110 5 125 -20z"/>
<path d="M543 1173 c9 -2 25 -2 35 0 9 3 1 5 -18 5 -19 0 -27 -2 -17 -5z"/>
<path d="M640 1174 c8 -3 42 -8 75 -13 56 -8 51 -9 -60 -11 -66 -1 -115 -3
-110 -5 20 -7 284 -12 280 -6 -2 4 24 3 58 -1 114 -15 741 -68 857 -72 102 -4
107 -4 45 4 -38 5 -241 26 -450 45 -209 20 -443 42 -520 50 -131 14 -210 18
-175 9z"/>
<path d="M735 1110 c255 -15 515 -34 511 -37 -4 -5 -666 16 -721 22 l-40 5 35
-10 c19 -5 154 -14 300 -20 146 -5 348 -14 450 -20 102 -5 232 -11 290 -14
l105 -5 -125 14 c-69 7 -159 14 -200 15 -49 1 -68 4 -55 9 16 7 11 10 -25 14
-156 20 -279 29 -460 32 -192 3 -196 3 -65 -5z"/>
<path d="M475 1060 c63 -11 441 -59 605 -76 l125 -13 -111 4 c-61 2 -142 9
-180 15 -38 5 -141 17 -229 25 -88 9 -176 18 -195 20 -30 4 -31 4 -9 -4 14 -5
93 -16 175 -25 82 -9 205 -23 274 -31 69 -8 172 -16 230 -20 58 -3 137 -7 175
-10 49 -3 61 -2 40 4 -19 6 1 7 58 3 48 -3 87 -2 87 1 0 3 -42 11 -92 18 -81
12 -88 14 -53 19 35 5 28 7 -50 18 -127 16 -220 24 -175 13 22 -5 -4 -7 -70
-3 -58 2 -107 6 -109 8 -2 2 29 5 70 5 l74 2 -80 8 c-44 5 -159 11 -255 13
-96 2 -215 6 -265 10 -71 4 -79 3 -40 -4z m378 -17 c-13 -2 -33 -2 -45 0 -13
2 -3 4 22 4 25 0 35 -2 23 -4z m95 -10 c-10 -2 -28 -2 -40 0 -13 2 -5 4 17 4
22 1 32 -1 23 -4z m300 -30 c-10 -2 -28 -2 -40 0 -13 2 -5 4 17 4 22 1 32 -1
23 -4z m65 -10 c-7 -2 -19 -2 -25 0 -7 3 -2 5 12 5 14 0 19 -2 13 -5z m-5 -30
c-16 -2 -40 -2 -55 0 -16 2 -3 4 27 4 30 0 43 -2 28 -4z"/>
<path d="M401 1007 c6 -7 186 -33 299 -42 41 -4 175 -18 297 -31 200 -22 394
-31 382 -19 -4 4 -78 11 -649 65 -118 11 -242 23 -275 26 -33 4 -57 4 -54 1z"/>
<path d="M411 966 c3 -3 106 -15 230 -26 257 -24 492 -50 498 -56 7 -7 -38 -5
-129 6 -121 14 -532 41 -538 35 -3 -3 1 -5 9 -5 8 0 88 -7 179 -15 91 -8 221
-20 290 -26 69 -6 160 -14 202 -18 42 -4 75 -4 72 0 -6 10 138 2 374 -22 210
-21 218 -21 210 -14 -5 6 -293 39 -508 59 -85 8 -222 24 -305 35 -82 10 -220
24 -305 30 -85 6 -184 14 -220 17 -36 3 -62 3 -59 0z m776 -92 c-3 -3 -12 -4
-19 -1 -8 3 -5 6 6 6 11 1 17 -2 13 -5z"/>
<path d="M458 883 c6 -2 18 -2 25 0 6 3 1 5 -13 5 -14 0 -19 -2 -12 -5z"/>
<path d="M525 876 c6 -3 84 -10 175 -16 91 -6 206 -18 255 -25 87 -14 87 -14
20 -9 -38 2 -122 9 -185 14 -63 5 -135 9 -160 9 -40 -1 -38 -2 20 -10 192 -24
485 -49 630 -54 91 -4 185 -8 210 -10 126 -11 224 -16 220 -12 -3 3 -90 14
-195 26 -104 11 -221 24 -260 28 l-70 8 50 6 c37 4 22 6 -55 7 -58 0 -162 8
-231 16 -118 14 -446 31 -424 22z m588 -63 c-7 -2 -21 -2 -30 0 -10 3 -4 5 12
5 17 0 24 -2 18 -5z"/>
<path d="M498 833 c7 -3 16 -2 19 1 4 3 -2 6 -13 5 -11 0 -14 -3 -6 -6z"/>
<path d="M630 814 c58 -8 146 -21 195 -29 l90 -14 -105 5 c-58 2 -136 7 -175
10 -38 4 -68 4 -65 1 9 -9 221 -39 310 -43 47 -2 123 -8 170 -13 69 -7 50 -8
-102 -5 -102 1 -204 6 -225 10 -21 4 -35 4 -32 0 4 -4 62 -15 130 -26 l124
-19 -95 5 c-52 2 -117 7 -145 11 -27 3 -47 3 -44 -1 7 -8 133 -21 289 -31 196
-12 226 -23 55 -19 -156 3 -158 3 -53 -6 58 -5 177 -19 265 -30 87 -11 212
-28 278 -36 66 -8 152 -21 192 -29 40 -8 82 -15 95 -14 30 1 -164 44 -312 69
l-115 20 80 -5 c44 -3 131 -14 194 -25 113 -20 197 -26 111 -9 -145 30 -302
59 -350 65 -30 4 -49 9 -43 11 16 6 257 -24 346 -43 38 -8 80 -14 95 -13 l27
1 -30 9 c-16 6 -82 18 -145 29 -63 10 -153 26 -200 34 -47 8 -98 17 -115 19
-16 3 4 3 45 0 41 -2 89 -6 105 -8 50 -7 257 -14 251 -8 -3 3 -56 9 -118 14
-170 14 -395 43 -405 53 -4 5 5 6 22 2 41 -8 356 -28 361 -23 10 10 -238 35
-556 57 -85 6 -202 15 -260 20 -213 19 -253 20 -140 4z m353 -51 c-13 -2 -33
-2 -45 0 -13 2 -3 4 22 4 25 0 35 -2 23 -4z m125 -10 c-10 -2 -26 -2 -35 0
-10 3 -2 5 17 5 19 0 27 -2 18 -5z m49 1 c-3 -3 -12 -4 -19 -1 -8 3 -5 6 6 6
11 1 17 -2 13 -5z m-104 -61 c-7 -2 -19 -2 -25 0 -7 3 -2 5 12 5 14 0 19 -2
13 -5z m185 -50 c-10 -2 -26 -2 -35 0 -10 3 -2 5 17 5 19 0 27 -2 18 -5z m95
-10 c-13 -2 -33 -2 -45 0 -13 2 -3 4 22 4 25 0 35 -2 23 -4z"/>
<path d="M628 743 c6 -2 18 -2 25 0 6 3 1 5 -13 5 -14 0 -19 -2 -12 -5z"/>
<path d="M708 653 c6 -2 18 -2 25 0 6 3 1 5 -13 5 -14 0 -19 -2 -12 -5z"/>
<path d="M908 623 c7 -3 16 -2 19 1 4 3 -2 6 -13 5 -11 0 -14 -3 -6 -6z"/>
<path d="M1045 605 c44 -7 160 -21 259 -31 98 -10 173 -20 166 -22 -6 -2 -60
1 -118 7 -59 5 -163 13 -232 15 l-125 5 100 -13 c55 -8 164 -20 243 -27 78 -7
142 -16 142 -20 0 -5 -24 -6 -52 -4 -29 2 -109 6 -178 9 -154 5 -88 -6 143
-24 92 -8 162 -17 156 -21 -15 -9 15 -15 201 -39 346 -44 732 -81 724 -69 -2
4 -41 9 -86 13 -133 11 -438 49 -433 54 3 3 56 0 117 -7 62 -8 127 -11 143 -9
24 4 21 5 -14 7 -24 0 -114 12 -200 26 -86 13 -228 31 -316 40 -174 17 -235
27 -115 19 224 -15 350 -26 389 -35 24 -5 46 -7 49 -4 3 3 -2 5 -12 5 -11 0
-14 4 -10 12 5 8 2 9 -9 5 -10 -4 -41 -2 -70 4 -28 5 -131 17 -227 25 -183 16
-250 30 -95 20 151 -10 50 10 -190 38 -121 13 -267 27 -325 29 l-105 5 80 -13z
m618 -132 c-13 -2 -35 -2 -50 0 -16 2 -5 4 22 4 28 0 40 -2 28 -4z m80 -10
c-7 -2 -21 -2 -30 0 -10 3 -4 5 12 5 17 0 24 -2 18 -5z m94 -9 c-3 -3 -12 -4
-19 -1 -8 3 -5 6 6 6 11 1 17 -2 13 -5z m91 -11 c-10 -2 -26 -2 -35 0 -10 3
-2 5 17 5 19 0 27 -2 18 -5z"/>
<path d="M1088 533 c7 -3 16 -2 19 1 4 3 -2 6 -13 5 -11 0 -14 -3 -6 -6z"/>
<path d="M950 503 c25 -2 106 -10 180 -18 74 -8 167 -17 205 -20 74 -6 90 -9
425 -55 477 -65 818 -105 826 -97 8 7 -97 23 -336 52 -118 14 -280 34 -360 45
-360 48 -451 59 -540 65 -52 4 -151 13 -220 21 -69 8 -147 13 -175 12 l-50 -1
45 -4z"/>
<path d="M2091 456 c10 -9 79 -14 74 -5 -4 5 -22 9 -42 9 -20 0 -34 -2 -32 -4z"/>
<path d="M1200 447 c3 -3 116 -20 250 -37 399 -49 557 -70 706 -90 78 -11 166
-19 195 -19 65 1 -169 37 -491 74 -355 40 -560 64 -614 71 -28 4 -49 4 -46 1z"/>
<path d="M2235 440 c17 -4 44 -8 60 -8 25 0 24 2 -10 9 -51 10 -92 10 -50 -1z"/>
<path d="M1258 403 c6 -2 18 -2 25 0 6 3 1 5 -13 5 -14 0 -19 -2 -12 -5z"/>
<path d="M1308 393 c6 -2 18 -2 25 0 6 3 1 5 -13 5 -14 0 -19 -2 -12 -5z"/>
<path d="M1373 383 c9 -2 23 -2 30 0 6 3 -1 5 -18 5 -16 0 -22 -2 -12 -5z"/>
<path d="M1108 373 c7 -3 16 -2 19 1 4 3 -2 6 -13 5 -11 0 -14 -3 -6 -6z"/>
<path d="M1428 373 c7 -3 16 -2 19 1 4 3 -2 6 -13 5 -11 0 -14 -3 -6 -6z"/>
<path d="M1168 363 c7 -3 16 -2 19 1 4 3 -2 6 -13 5 -11 0 -14 -3 -6 -6z"/>
<path d="M2491 366 c2 -2 24 -6 48 -9 29 -4 40 -2 30 4 -13 8 -88 14 -78 5z"/>
<path d="M1248 353 c7 -3 16 -2 19 1 4 3 -2 6 -13 5 -11 0 -14 -3 -6 -6z"/>
<path d="M1848 323 c7 -3 16 -2 19 1 4 3 -2 6 -13 5 -11 0 -14 -3 -6 -6z"/>
<path d="M1990 309 c30 -5 80 -14 110 -20 30 -5 111 -12 180 -14 l125 -4 -110
9 c-60 4 -158 15 -216 24 -59 9 -115 15 -125 15 -11 -1 6 -5 36 -10z"/>
<path d="M1868 283 c7 -3 16 -2 19 1 4 3 -2 6 -13 5 -11 0 -14 -3 -6 -6z"/>
<path d="M1925 270 c17 -4 44 -8 60 -8 25 0 24 2 -10 9 -51 10 -92 10 -50 -1z"/>
<path d="M2038 253 c12 -2 30 -2 40 0 9 3 -1 5 -23 4 -22 0 -30 -2 -17 -4z"/>
<path d="M2118 243 c12 -2 32 -2 45 0 12 2 2 4 -23 4 -25 0 -35 -2 -22 -4z"/>
<path d="M2213 233 c9 -2 23 -2 30 0 6 3 -1 5 -18 5 -16 0 -22 -2 -12 -5z"/>
</g>
</svg>
